<?xml version="1.0" encoding="utf-8"?>
<!-- Generator: Adobe Illustrator 16.0.3, SVG Export Plug-In . SVG Version: 6.00 Build 0)  -->
<!DOCTYPE svg PUBLIC "-//W3C//DTD SVG 1.1//EN" "http://www.w3.org/Graphics/SVG/1.1/DTD/svg11.dtd">
<svg version="1.1" id="Layer_1" xmlns="http://www.w3.org/2000/svg" xmlns:xlink="http://www.w3.org/1999/xlink" x="0px" y="0px"
	 width="594px" height="720px" viewBox="0 0 594 720" enable-background="new 0 0 594 720" xml:space="preserve">
<polyline fill="none" stroke="#010101" stroke-width="0.4409" stroke-miterlimit="1.2" points="66.04,23.577 65.732,28.239 
	59.428,31.332 55.646,35.759 57.303,37.04 56.119,41.643 57.778,42.926 56.519,48.69 53.669,52.005 55.411,52.123 55.174,55.618 
	57.71,56.96 55.731,60.333 56.136,67.377 50.02,66.964 50.42,61.145 40.034,59.252 38.208,60.293 37.758,59.364 36.877,54.351 
	38.619,54.473 33.611,38.902 29.69,32.762 33.052,22.469 67.067,24.03 "/>
<polyline fill="none" stroke="#010101" stroke-width="0.4409" stroke-miterlimit="1.2" points="174.347,29.576 171.783,86.702 
	248.057,89.561 248.329,88.492 249.783,32.412 171.933,28.84 "/>
<polyline fill="none" stroke="#010101" stroke-width="0.4409" stroke-miterlimit="1.2" points="177.876,138.613 190.731,138.827 
	189.279,152.75 195.397,155.325 197.083,157.724 199.793,156.664 199.884,154.339 206.315,148.759 212.479,150.155 216.833,152.64 
	227.979,164.672 231.539,164.789 234.13,167.202 240.782,182.547 239.675,189.496 236.919,191.735 244.892,194.311 245.612,193.355 
	248.329,88.492 248.057,89.561 177.876,86.93 178.795,87.011 176.57,138.229 "/>
<polyline fill="#5D92C4" stroke="#010101" stroke-width="0.4409" stroke-miterlimit="1.2" points="178.795,87.011 176.57,138.229 
	177.876,138.613 149.082,138.135 134.859,138.587 130.312,140.685 112.67,138.57 104.44,142.769 100.146,140.193 92.991,140.942 
	89.237,144.218 87.533,142.946 83.851,145.058 84.132,140.409 90.82,132.647 91.633,133.861 99.116,127.3 103.599,126.393 
	100.536,118.048 103.25,117.038 110.21,103.428 111.415,97.657 114.115,96.64 113.498,91.936 119.765,89.949 119.574,88.493 
	117.458,83.983 120.087,84.128 121.964,81.894 123.591,84.317 171.783,86.702 "/>
<polyline fill="none" stroke="#010101" stroke-width="0.4409" stroke-miterlimit="1.2" points="72.714,82.492 79.284,89.916 
	86.228,91.513 89.529,95.212 90.547,92.94 92.973,96.59 94.06,93.153 90.76,89.449 91.18,82.466 96.571,80.45 101.62,84.253 
	103.714,78.534 111.849,74.326 113.794,70.933 118.036,73.502 114.958,81.509 119.146,85.243 119.574,88.493 119.765,89.949 
	113.498,91.936 114.115,96.64 111.415,97.657 110.21,103.428 103.25,117.038 100.536,118.048 103.599,126.393 99.116,127.3 
	91.633,133.861 90.82,132.647 84.132,140.409 83.851,145.058 87.327,146.434 86.559,159.214 89.699,166.399 56.778,164.339 
	60.216,112.051 57.801,108.387 58.99,103.796 56.43,102.457 56.584,100.131 57.619,97.864 63.616,100.596 65.524,98.382 
	67.731,91.516 64.451,87.796 67.157,86.806 67.384,83.316 "/>
<polyline fill="#9A6AAD" stroke="#010101" stroke-width="0.4409" stroke-miterlimit="1.2" points="117.458,83.983 120.087,84.128 
	121.964,81.894 123.591,84.317 171.783,86.702 174.347,29.576 171.933,28.84 67.067,24.03 66.04,23.577 65.732,28.239 
	59.428,31.332 55.646,35.759 57.303,37.04 56.119,41.643 57.778,42.926 56.519,48.69 53.669,52.005 55.411,52.123 55.174,55.618 
	57.71,56.96 55.731,60.333 56.136,67.377 64.872,67.955 70.01,83.484 72.714,82.492 79.284,89.916 86.228,91.513 89.529,95.212 
	90.547,92.94 92.973,96.59 94.06,93.153 90.76,89.449 91.18,82.466 96.571,80.45 101.62,84.253 103.714,78.534 111.849,74.326 
	113.794,70.933 118.036,73.502 114.958,81.509 119.146,85.243 119.574,88.493 "/>
<polyline fill="#9A6AAD" stroke="#010101" stroke-width="0.4409" stroke-miterlimit="1.2" points="67.384,83.316 67.157,86.806 
	64.451,87.796 67.731,91.516 65.524,98.382 63.616,100.596 57.619,97.864 56.584,100.131 56.43,102.457 58.99,103.796 
	57.801,108.387 60.216,112.051 56.778,164.339 56.855,163.178 32.844,161.546 32.112,160.576 28.893,154.267 15.629,140.468 
	16.857,135.887 14.635,129.886 18.139,118.465 33.439,90.356 30.68,79.637 31.723,77.374 34.186,79.889 38.127,61.459 
	37.758,59.364 38.208,60.293 40.034,59.252 50.42,61.145 50.02,66.964 56.136,67.377 64.872,67.955 70.01,83.484 "/>
<polyline fill="#5D92C4" stroke="#010101" stroke-width="0.4409" stroke-miterlimit="1.2" points="136.166,182.938 136.461,177.127 
	148.941,177.745 153.514,175.637 152.729,173.267 155.569,169.907 157.294,171.153 158.241,170.032 159.293,166.585 
	161.069,166.667 161.234,163.181 164.792,163.344 168.451,161.182 169.493,157.73 173.684,163.74 169.817,170.559 169.506,177.532 
	180.51,191.981 187.424,198.088 189.215,198.159 183.552,204.913 179.12,203.562 176.386,204.611 170.551,214.833 162.259,219.115 
	157.821,217.745 142.488,218.182 144.262,209.982 145.975,202.058 138.806,201.704 137.135,199.292 139.098,195.9 138.263,194.688 
	140.11,193.616 138.38,192.367 141.956,192.544 141.234,189.016 136.942,185.305 137.952,183.029 134.237,182.737 "/>
<polyline fill="none" stroke="#010101" stroke-width="0.4409" stroke-miterlimit="1.2" points="143.673,212.422 136.493,212.066 
	136.608,209.74 129.435,209.378 129.313,211.697 97.911,209.988 99.072,205.398 97.817,196.005 90.656,195.59 89.624,182.713 
	87.837,182.606 88.938,179.178 134.237,182.737 136.166,182.938 134.237,182.737 137.952,183.029 136.942,185.305 141.234,189.016 
	141.956,192.544 138.38,192.367 140.11,193.616 138.263,194.688 139.098,195.9 137.135,199.292 138.806,201.704 145.975,202.058 
	144.262,209.982 "/>
<polyline fill="none" stroke="#010101" stroke-width="0.4409" stroke-miterlimit="1.2" points="149.082,138.135 177.876,138.613 
	190.731,138.827 189.279,152.75 195.397,155.325 197.083,157.724 199.793,156.664 199.884,154.339 206.315,148.759 212.479,150.155 
	216.833,152.64 227.979,164.672 231.539,164.789 234.13,167.202 240.782,182.547 239.675,189.496 236.919,191.735 237.774,192.93 
	219.894,192.336 219.85,193.495 209.08,194.276 198.618,186.896 194.906,190.241 194.723,194.892 187.424,198.088 180.51,191.981 
	169.506,177.532 169.817,170.559 173.684,163.74 169.493,157.73 167.72,157.652 174.142,153.276 172.722,145.058 168.345,143.695 
	167.72,137.843 "/>
<polygon fill="#CA6146" stroke="#010101" stroke-width="0.4409" stroke-miterlimit="1.2" points="177.876,138.613 149.082,138.135 
	134.859,138.587 130.312,140.685 112.67,138.57 104.44,142.769 100.146,140.193 92.991,140.942 89.237,144.218 87.533,142.946 
	83.851,145.058 87.327,146.434 86.559,159.214 89.699,166.399 90.38,169.936 87.571,172.103 87.433,174.423 88.938,179.178 
	134.237,182.737 136.166,182.938 136.461,177.127 148.941,177.745 153.514,175.637 152.729,173.267 155.569,169.907 
	157.294,171.153 158.241,170.032 159.293,166.585 161.069,166.667 161.234,163.181 164.792,163.344 168.451,161.182 169.493,157.73 
	167.72,157.652 174.142,153.276 172.722,145.058 168.345,143.695 167.72,137.843 "/>
<polygon fill="none" stroke="#010101" stroke-width="0.4409" stroke-miterlimit="1.2" points="191.05,197.073 188.933,205.132 
	190.678,206.365 190.444,212.175 203.995,210.374 206.813,206.994 212.28,204.863 214.069,204.927 218.35,210.899 245.267,211.769 
	245.181,209.982 245.612,193.355 244.892,194.311 236.919,191.735 237.774,192.93 219.894,192.336 219.85,193.495 209.08,194.276 
	198.618,186.896 194.906,190.241 194.723,194.892 192.422,195.9 "/>
<polyline fill="#9A6AAD" stroke="#010101" stroke-width="0.4409" stroke-miterlimit="1.2" points="245.267,211.769 218.35,210.899 
	214.069,204.927 212.28,204.863 206.813,206.994 203.995,210.374 190.444,212.175 184.068,214.244 176.586,220.908 175.844,238.327 
	179.402,239.639 183.057,238.631 187.475,241.138 196.094,228.683 209.036,219.866 244.988,221.065 244.857,222.486 
	245.181,209.982 "/>
<polyline fill="none" stroke="#010101" stroke-width="0.4409" stroke-miterlimit="1.2" points="143.673,212.422 136.493,212.066 
	136.608,209.74 129.435,209.378 129.313,211.697 97.911,209.988 95.215,209.835 96.945,211.098 95.78,215.688 100.84,221.799 
	104.37,223.16 108.931,222.252 110.603,224.674 110.411,228.153 108.612,228.054 110.286,230.476 109.191,233.905 109.967,236.278 
	113.511,237.635 114.161,242.322 145.753,243.938 146,243.833 144.961,241.571 147.78,239.379 145.298,234.608 140.065,230.866 
	140.635,219.254 142.488,218.182 144.262,209.982 "/>
<polygon fill="#5D92C4" stroke="#010101" stroke-width="0.4409" stroke-miterlimit="1.2" points="102.291,260.288 108.756,258.321 
	114.627,250.495 112.941,248.076 114.161,242.322 113.511,237.635 109.967,236.278 109.191,233.905 110.286,230.476 
	108.612,228.054 110.411,228.153 110.603,224.674 108.931,222.252 104.37,223.16 100.84,221.799 95.78,215.688 96.945,211.098 
	95.215,209.835 97.911,209.988 99.072,205.398 97.817,196.005 90.656,195.59 89.555,199.018 79.636,199.591 78.389,205.337 
	82.857,220.75 78.224,222.795 76.139,227.332 77.585,233.236 82.852,235.886 84.314,241.791 91.329,245.696 97.895,257.712 "/>
<polyline fill="#9A6AAD" stroke="#010101" stroke-width="0.4409" stroke-miterlimit="1.2" points="32.112,160.576 37.538,171.208 
	42.565,176.218 43.168,193.745 39.851,202.847 43.079,221.708 46.29,227.747 43.044,235.687 46.261,241.725 49.796,243.12 
	54.686,251.59 55.739,249.33 61.161,249.68 62.215,247.418 73.957,248.15 74.1,245.825 77.784,244.893 91.329,245.696 
	84.314,241.791 82.852,235.886 77.585,233.236 76.139,227.332 78.224,222.795 82.857,220.75 78.389,205.337 79.636,199.591 
	89.555,199.018 90.656,195.59 89.624,182.713 87.837,182.606 88.938,179.178 87.433,174.423 87.571,172.103 90.38,169.936 
	89.699,166.399 56.778,164.339 56.855,163.178 32.844,161.546 "/>
<polyline fill="#5D92C4" stroke="#010101" stroke-width="0.4409" stroke-miterlimit="1.2" points="113.911,246.966 120.11,249.624 
	122.455,256.723 121.493,257.839 125.778,262.712 124.748,264.985 126.564,265.08 128.021,272.136 133.352,274.732 135.338,271.339 
	150.819,270.925 150.054,287.166 155.514,287.417 160.328,281.826 161.498,276.068 158.828,274.784 161.653,272.588 161.76,270.269 
	158.396,264.3 155.73,263.014 154.934,260.651 156.057,259.339 156.847,258.417 157.011,254.935 155.144,256.012 153.39,254.769 
	152.378,257.048 152.54,253.567 150.046,248.794 145.585,247.419 146.601,245.141 146,243.833 145.753,243.938 114.161,242.322 
	112.941,248.076 "/>
<polyline fill="none" stroke="#010101" stroke-width="0.4409" stroke-miterlimit="1.2" points="173.188,237.05 167.625,240.295 
	160.302,242.293 158.34,245.692 156.919,217.708 157.821,217.745 162.259,219.115 170.551,214.833 176.386,204.611 179.12,203.562 
	183.552,204.913 189.215,198.159 191.05,197.073 188.933,205.132 190.678,206.365 190.444,212.175 184.068,214.244 176.586,220.908 
	175.844,238.327 "/>
<polyline fill="#5D92C4" stroke="#010101" stroke-width="0.4409" stroke-miterlimit="1.2" points="156.057,259.339 156.847,258.417 
	163.33,259.009 163.186,258.702 164.71,244.816 167.42,244.936 167.625,240.295 160.302,242.293 158.34,245.692 156.919,217.708 
	157.821,217.745 142.488,218.182 140.635,219.254 140.065,230.866 145.298,234.608 147.78,239.379 144.961,241.571 146,243.833 
	146.601,245.141 145.585,247.419 150.046,248.794 152.54,253.567 152.378,257.048 153.39,254.769 155.144,256.012 157.011,254.935 
	156.847,258.417 "/>
<polygon fill="#5D92C4" stroke="#010101" stroke-width="0.4409" stroke-miterlimit="1.2" points="244.464,238.491 237.29,237.108 
	234.474,240.507 230.863,240.395 230.825,241.554 220.04,240.029 219.016,243.481 212.533,247.903 203.76,240.605 200.152,240.47 
	196.363,244.971 187.24,246.943 181.242,260.645 163.33,259.009 163.186,258.702 164.71,244.816 167.42,244.936 167.625,240.295 
	173.188,237.05 175.844,238.327 179.402,239.639 183.057,238.631 187.475,241.138 196.094,228.683 209.036,219.866 244.988,221.065 
	244.857,222.486 244.403,239.963 "/>
<polygon fill="#5D92C4" stroke="#010101" stroke-width="0.4409" stroke-miterlimit="1.2" points="188.233,289.99 171.646,293.948 
	166.179,293.708 161.73,291.188 155.79,301.379 156.647,302.581 150.26,302.284 149.132,306.88 146.335,307.91 143.594,307.778 
	141.88,305.375 147.466,303.314 154.232,295.496 155.514,287.417 160.328,281.826 161.498,276.068 158.828,274.784 161.653,272.588 
	161.76,270.269 158.396,264.3 155.73,263.014 154.934,260.651 156.057,259.339 156.847,258.417 163.33,259.009 181.242,260.645 
	181.196,261.81 182.192,259.523 187.928,274.869 "/>
<polyline fill="none" stroke="#010101" stroke-width="0.4409" stroke-miterlimit="1.2" points="244.403,239.963 244.292,244.298 
	251.382,249.154 251.281,252.639 248.536,253.724 246.592,258.315 240.112,262.767 238.3,262.711 234.495,268.406 227.997,272.841 
	216.075,275.922 207.899,275.631 198.954,271.814 193.378,275.083 191.607,273.85 187.928,274.869 182.192,259.523 181.196,261.81 
	181.242,260.645 187.24,246.943 196.363,244.971 200.152,240.47 203.76,240.605 212.533,247.903 219.016,243.481 220.04,240.029 
	230.825,241.554 230.863,240.395 234.474,240.507 237.29,237.108 244.464,238.491 "/>
<polygon fill="#5D92C4" stroke="#010101" stroke-width="0.4409" stroke-miterlimit="1.2" points="188.233,289.99 188.911,295.824 
	191.647,295.931 215.914,280.567 239.685,276.699 240.112,262.767 238.3,262.711 234.495,268.406 227.997,272.841 216.075,275.922 
	207.899,275.631 198.954,271.814 193.378,275.083 191.607,273.85 187.928,274.869 "/>
<polyline fill="none" stroke="#010101" stroke-width="0.4409" stroke-miterlimit="1.2" points="250.284,287.466 239.545,281.34 
	239.685,276.699 240.112,262.767 246.592,258.315 248.536,253.724 251.281,252.639 251.382,249.154 266.441,263.266 
	267.262,264.688 264.418,269.265 268.692,279.834 266.785,283.267 267.666,284.453 265.815,285.565 264.938,284.382 
	262.053,290.111 258.569,284.211 250.284,287.466 239.545,281.34 "/>
<polyline fill="#9A6AAD" stroke="#010101" stroke-width="0.4409" stroke-miterlimit="1.2" points="102.291,260.288 97.895,257.712 
	91.329,245.696 77.784,244.893 74.1,245.825 73.957,248.15 62.215,247.418 61.161,249.68 55.739,249.33 54.686,251.59 
	58.152,254.143 65.566,266.253 72.606,270.181 77.352,282.105 81.759,284.691 84.556,283.697 91.434,291.074 98.521,294.97 
	101.322,293.962 105.621,298.851 105.746,296.532 109.333,297.888 111.341,294.51 113.166,294.61 111.059,282.868 109.241,282.773 
	109.366,280.448 106.701,279.144 107.74,276.871 103.584,269.664 99.247,265.932 101.384,260.235 "/>
<polygon fill="#5D92C4" stroke="#010101" stroke-width="0.4409" stroke-miterlimit="1.2" points="119.689,297.28 115.778,297.075 
	113.166,294.61 111.059,282.868 109.241,282.773 109.366,280.448 106.701,279.144 107.74,276.871 103.584,269.664 99.247,265.932 
	101.384,260.235 102.291,260.288 108.756,258.321 114.627,250.495 112.941,248.076 113.911,246.966 120.11,249.624 122.455,256.723 
	121.493,257.839 125.778,262.712 124.748,264.985 126.564,265.08 128.021,272.136 126.755,279.044 130.948,286.233 121.851,285.769 
	122.157,297.41 "/>
<polygon fill="#5D92C4" stroke="#010101" stroke-width="0.4409" stroke-miterlimit="1.2" points="159.289,345.683 174.64,331.25 
	187.621,328.295 190.326,329.566 192.248,327.317 190.462,326.087 192.151,306.407 188.911,295.824 188.233,289.99 171.646,293.948 
	166.179,293.708 161.73,291.188 155.79,301.379 156.647,302.581 155.311,311.811 157.034,314.214 154.994,318.77 156.057,319.278 
	157.684,320.056 155.769,342.039 158.527,342.165 "/>
<polyline fill="#5D92C4" stroke="#010101" stroke-width="0.4409" stroke-miterlimit="1.2" points="126.755,279.044 128.021,272.136 
	126.755,279.044 130.948,286.233 121.851,285.769 122.157,297.41 119.689,297.28 119.422,297.266 119.3,299.586 125.445,304.555 
	120.029,303.113 125.389,305.714 132.81,303.765 136.401,305.106 141.937,304.215 141.88,305.375 147.466,303.314 154.232,295.496 
	155.514,287.417 150.054,287.166 150.819,270.925 135.338,271.339 133.352,274.732 128.021,272.136 "/>
<polyline fill="#5D92C4" stroke="#010101" stroke-width="0.4409" stroke-miterlimit="1.2" points="125.389,305.714 120.029,303.113 
	118.081,305.332 114.428,305.139 111.443,309.628 112.23,311.998 119.692,316.287 121.132,317.114 121.868,320.64 129.136,322.175 
	132.681,324.677 132.45,329.312 156.667,322.333 156.057,319.278 154.994,318.77 157.034,314.214 155.311,311.811 156.647,302.581 
	150.26,302.284 149.132,306.88 146.335,307.91 143.594,307.778 141.88,305.375 141.937,304.215 136.401,305.106 132.81,303.765 
	125.389,305.714 120.029,303.113 "/>
<polyline fill="#9A6AAD" stroke="#010101" stroke-width="0.4409" stroke-miterlimit="1.2" points="107.442,298.952 106.213,304.695 
	108.89,306.002 108.764,308.322 106.874,309.382 110.28,314.214 109.302,315.322 106.623,314.019 107.281,318.705 105.515,317.443 
	97.61,311.195 95.711,312.245 87.048,303.614 84.308,303.449 83.531,301.084 79.605,305.5 78.899,301.968 82.05,295.177 
	80.503,290.435 82.392,289.382 84.008,292.967 84.988,291.86 81.759,284.691 84.556,283.697 91.434,291.074 98.521,294.97 
	101.322,293.962 105.621,298.851 105.746,296.532 "/>
<polyline fill="#9A6AAD" stroke="#010101" stroke-width="0.4409" stroke-miterlimit="1.2" points="239.545,281.34 239.685,276.699 
	215.914,280.567 191.647,295.931 188.911,295.824 192.151,306.407 206.968,322.81 206.172,323.195 210.914,318.724 213.823,314.179 
	212.949,312.988 221.491,303.992 229.205,291.467 240.454,281.37 "/>
<polyline fill="#5D92C4" stroke="#010101" stroke-width="0.4409" stroke-miterlimit="1.2" points="112.381,326.351 112.65,321.316 
	109.052,319.958 107.157,321.021 105.201,323.239 105.641,326.352 106.777,327.975 111.359,328.223 "/>
<polyline fill="#5D92C4" stroke="#010101" stroke-width="0.4409" stroke-miterlimit="1.2" points="113.007,366.651 113.128,364.331 
	116.818,364.526 117.864,362.257 122.476,362.493 122.713,357.863 119.387,350.722 121.469,346.184 127.104,344.145 
	126.302,341.781 119.988,339.134 117.416,335.514 111.969,334.063 112.381,326.351 111.359,328.223 106.777,327.975 
	105.641,326.352 106.524,332.606 104.629,333.67 104.376,338.3 105.165,340.667 107,340.769 109.386,347.869 108.825,358.294 
	112.881,368.965 112.881,368.965 "/>
<polyline fill="none" stroke="#010101" stroke-width="0.4409" stroke-miterlimit="1.2" points="235.888,370.628 254.844,353.771 
	260.369,353.916 260.461,350.442 264.203,348.22 264.295,344.737 280.298,328.876 277.627,325.333 267.666,320.449 263.029,322.654 
	262.02,326.107 253.674,329.363 250.043,328.102 248.176,329.209 237.277,325.401 234.419,328.796 232.625,327.581 230.716,329.844 
	223.341,330.76 224.067,336.589 221.515,337.762 220.354,337.626 225.485,349.406 224.454,352.855 229.793,358.83 232.341,365.875 
	237.774,369.527 "/>
<polyline fill="#5D92C4" stroke="#010101" stroke-width="0.4409" stroke-miterlimit="1.2" points="221.515,337.762 224.067,336.589 
	223.341,330.76 230.716,329.844 232.625,327.581 234.419,328.796 237.277,325.401 248.176,329.209 250.043,328.102 253.674,329.363 
	262.02,326.107 263.029,322.654 267.666,320.449 277.627,325.333 280.298,328.876 282.081,331.24 285.823,327.84 284.934,326.659 
	286.815,324.381 285.063,320.86 280.538,318.437 279.837,309.132 274.438,305.523 272.582,306.639 269.961,301.928 269.016,303.067 
	266.367,299.516 263.633,299.444 264.665,294.83 262.053,290.111 258.569,284.211 250.284,287.466 239.545,281.34 240.454,281.37 
	229.205,291.467 221.491,303.992 212.949,312.988 213.823,314.179 210.914,318.724 206.172,323.195 206.968,322.81 220.354,337.626 
	"/>
<polyline fill="#F5AE4C" stroke="#010101" stroke-width="0.4409" stroke-miterlimit="1.2" points="235.888,370.628 225.729,370.304 
	214.481,374.572 211.743,377.265 189.456,399.185 176.74,391.711 175.081,387 172.3,386.88 171.661,384.544 170.694,381.008 
	172.788,375.292 170.986,374.056 172.057,370.618 187.391,357.316 186.607,353.8 221.515,337.762 220.354,337.626 225.485,349.406 
	224.454,352.855 229.793,358.83 232.341,365.875 237.774,369.527 "/>
<polyline fill="#5D92C4" stroke="#010101" stroke-width="0.4409" stroke-miterlimit="1.2" points="220.354,337.626 206.968,322.81 
	192.151,306.407 190.462,326.087 192.248,327.317 190.326,329.566 187.621,328.295 174.64,331.25 159.289,345.683 159.083,350.316 
	163.481,355.159 162.358,359.752 160.511,359.668 161.949,369.024 170.356,367.067 172.057,370.618 187.391,357.316 186.607,353.8 
	221.515,337.762 "/>
<polyline fill="none" stroke="#010101" stroke-width="0.4409" stroke-miterlimit="1.2" points="282.081,331.24 283.864,333.601 
	291.226,332.597 295.606,343.134 300.178,344.381 304.67,350.269 308.376,349.175 310.174,351.528 359.901,351.008 359.694,350.652 
	266.441,263.266 267.262,264.688 264.418,269.265 268.692,279.834 266.785,283.267 267.666,284.453 265.815,285.565 
	264.938,284.382 262.053,290.111 264.665,294.83 263.633,299.444 266.367,299.516 269.016,303.067 269.961,301.928 272.582,306.639 
	274.438,305.523 279.837,309.132 280.538,318.437 285.063,320.86 286.815,324.381 284.934,326.659 285.823,327.84 282.081,331.24 
	280.298,328.876 "/>
<polyline fill="#5D92C4" stroke="#010101" stroke-width="0.4409" stroke-miterlimit="1.2" points="282.081,331.24 283.864,333.601 
	291.226,332.597 295.606,343.134 278.661,360.175 277.522,369.428 274.667,372.84 273.771,371.659 269.991,375.051 268.199,372.689 
	267.245,373.823 264.503,372.59 264.356,378.389 262.503,378.343 260.563,381.771 259.697,379.428 254.943,383.942 254.849,387.417 
	251.941,391.982 240.711,395.139 223.894,398.092 219.292,396.783 215.697,393.18 214.967,387.356 210.623,379.076 211.743,377.265 
	214.481,374.572 225.729,370.304 235.888,370.628 254.844,353.771 260.369,353.916 260.461,350.442 264.203,348.22 264.295,344.737 
	280.298,328.876 "/>
<polyline fill="#5D92C4" stroke="#010101" stroke-width="0.4409" stroke-miterlimit="1.2" points="156.057,319.278 157.684,320.056 
	155.769,342.039 158.527,342.165 159.289,345.683 137.217,344.651 136.242,345.762 133.542,344.469 133.597,343.312 
	128.197,340.719 123.28,328.85 117.231,321.562 117.592,314.606 119.692,316.287 121.132,317.114 121.868,320.64 129.136,322.175 
	132.681,324.677 132.45,329.312 156.667,322.333 "/>
<polyline fill="#5D92C4" stroke="#010101" stroke-width="0.4409" stroke-miterlimit="1.2" points="119.387,350.722 122.713,357.863 
	128.761,366.299 138.691,371.432 149.793,384.538 150.989,385.947 156.653,383.879 156.758,381.565 159.587,380.528 
	161.336,382.927 171.52,383.365 171.661,384.544 170.694,381.008 172.788,375.292 170.986,374.056 172.057,370.618 170.356,367.067 
	161.949,369.024 160.511,359.668 162.358,359.752 163.481,355.159 159.083,350.316 159.289,345.683 137.217,344.651 
	136.242,345.762 133.542,344.469 133.597,343.312 131.644,345.536 127.104,344.145 121.469,346.184 119.387,350.722 
	122.713,357.863 "/>
<polyline fill="#9A6AAD" stroke="#010101" stroke-width="0.4409" stroke-miterlimit="1.2" points="112.881,368.965 115.651,369.109 
	117.261,373.842 123.496,378.809 128.064,380.198 134.599,379.362 141.672,386.669 143.632,384.441 148.159,386.973 150.116,384.74 
	149.793,384.538 138.691,371.432 128.761,366.299 122.713,357.863 122.476,362.493 117.864,362.257 116.818,364.526 
	113.128,364.331 113.007,366.651 "/>
<polyline fill="#9A6AAD" stroke="#010101" stroke-width="0.4409" stroke-miterlimit="1.2" points="263.319,418.965 266.114,419.031 
	265.968,424.83 269.698,424.921 268.541,434.168 265.707,435.26 264.566,443.35 264.897,467.711 265.153,467.058 350.465,468.039 
	351.493,458.776 348.688,457.591 348.784,448.316 346.923,447.136 347.895,443.671 344.238,435.517 345.237,429.729 342.449,428.54 
	342.502,423.902 337.867,421.528 337.922,416.889 335.156,414.537 336.118,412.231 330.612,406.357 332.499,404.071 
	331.604,401.736 297.208,402.328 297.095,408.126 279.45,406.594 278.361,413.527 269.982,413.326 265.154,417.608 "/>
<polyline fill="none" stroke="#010101" stroke-width="0.4409" stroke-miterlimit="1.2" points="482.046,465.48 386.186,469.439 
	374.252,468.919 355.163,468.086 352.331,469.215 350.465,468.039 351.493,458.776 348.688,457.591 348.784,448.316 
	346.923,447.136 347.895,443.671 344.238,435.517 345.237,429.729 342.449,428.54 342.502,423.902 337.867,421.528 337.922,416.889 
	335.156,414.537 336.118,412.231 330.612,406.357 332.499,404.071 331.604,401.736 329.825,395.915 331.743,391.301 
	327.271,379.641 315.335,373.66 315.473,365.536 312.781,360.852 310.914,361.982 308.251,356.135 310.174,351.528 359.901,351.008 
	359.694,350.652 481.232,464.544 "/>
<polyline fill="#CA6146" stroke="#010101" stroke-width="0.4409" stroke-miterlimit="1.2" points="374.252,468.919 355.163,468.086 
	352.331,469.215 350.465,468.039 265.153,467.058 226.357,466.611 225.987,478.196 231.639,478.373 231.425,485.325 
	236.908,491.289 244.462,491.51 244.294,497.303 248.075,497.408 247.913,503.201 255.482,503.406 256.275,509.229 261.011,509.352 
	261.808,515.168 266.495,517.602 266.209,529.188 276.635,530.595 278.433,535.275 301.52,535.605 369.772,536.582 371.139,469.366 
	"/>
<polyline fill="#5D92C4" stroke="#010101" stroke-width="0.4409" stroke-miterlimit="1.2" points="210.623,379.076 214.967,387.356 
	215.697,393.18 219.292,396.783 223.894,398.092 240.711,395.139 251.941,391.982 254.849,387.417 254.943,383.942 259.697,379.428 
	260.563,381.771 262.503,378.343 264.356,378.389 264.503,372.59 267.245,373.823 268.199,372.689 269.991,375.051 273.771,371.659 
	274.667,372.84 277.522,369.428 278.661,360.175 295.606,343.134 300.178,344.381 304.67,350.269 308.376,349.175 310.174,351.528 
	308.251,356.135 310.914,361.982 312.781,360.852 315.473,365.536 315.335,373.66 327.271,379.641 331.743,391.301 329.825,395.915 
	331.604,401.736 297.208,402.328 297.095,408.126 279.45,406.594 278.361,413.527 269.982,413.326 265.154,417.608 258.537,423.479 
	241.713,424.167 241.272,439.233 220.984,458.322 212.656,454.56 213.633,453.433 210.943,449.862 208.133,449.758 204.549,444.999 
	202.68,444.928 200.038,440.189 203.947,435.695 200.252,434.396 200.377,430.923 206.107,427.649 206.438,418.382 189.456,399.185 
	211.743,377.265 "/>
<polyline fill="#9A6AAD" stroke="#010101" stroke-width="0.4409" stroke-miterlimit="1.2" points="171.52,383.365 161.336,382.927 
	159.587,380.528 156.758,381.565 156.653,383.879 150.989,385.947 149.793,384.538 150.116,384.74 148.159,386.973 156.08,396.62 
	159.741,397.946 157.783,400.183 158.661,401.382 166.824,406.383 166.475,414.492 170.247,413.487 172.797,419.399 
	179.929,427.813 179.788,431.289 183.476,432.598 183.567,430.278 186.372,430.391 187.393,428.107 197.363,436.612 
	197.619,429.663 200.336,432.082 200.377,430.923 206.107,427.649 206.438,418.382 189.456,399.185 176.74,391.711 175.081,387 
	172.3,386.88 171.661,384.544 "/>
<polyline fill="#5D92C4" stroke="#010101" stroke-width="0.4409" stroke-miterlimit="1.2" points="265.154,417.608 258.537,423.479 
	241.713,424.167 241.272,439.233 220.984,458.322 224.667,460.757 223.651,463.048 226.357,466.611 265.153,467.058 
	264.897,467.711 264.566,443.35 265.707,435.26 268.541,434.168 269.698,424.921 265.968,424.83 266.114,419.031 263.319,418.965 
	"/>
<polyline fill="#5D92C4" stroke="#010101" stroke-width="0.4409" stroke-miterlimit="1.2" points="150.116,384.74 148.159,386.973 
	143.632,384.441 141.672,386.669 141.674,386.669 141.122,398.253 139.044,402.799 136.198,403.822 134.399,402.575 131.383,407.07 
	133.125,409.477 131.21,410.544 133.776,415.313 134.201,425.781 145.019,434.421 155.562,449.987 156.297,454.664 165.28,464.334 
	165.278,464.334 226.357,466.611 223.651,463.048 224.667,460.757 220.984,458.322 212.656,454.56 213.633,453.433 210.943,449.862 
	208.133,449.758 204.549,444.999 202.68,444.928 200.038,440.189 203.947,435.695 200.252,434.396 200.377,430.923 200.252,434.396 
	200.336,432.082 197.619,429.663 197.363,436.612 187.393,428.107 186.372,430.391 183.567,430.278 183.476,432.598 
	179.788,431.289 179.929,427.813 172.797,419.399 170.247,413.487 166.475,414.492 166.824,406.383 158.661,401.382 
	157.783,400.183 159.741,397.946 156.08,396.62 148.159,386.973 "/>
<polyline fill="#CA6146" stroke="#010101" stroke-width="0.4409" stroke-miterlimit="1.2" points="200.817,522.566 208.492,520.525 
	218.74,526.67 217.978,520.844 225.645,518.772 230.564,513.129 244.615,519.341 250.184,524.139 254.958,523.105 263.358,529.118 
	266.209,529.188 266.495,517.602 261.808,515.168 261.011,509.352 256.275,509.229 255.482,503.406 247.913,503.201 
	248.075,497.408 244.294,497.303 244.462,491.51 236.908,491.289 231.425,485.325 231.639,478.373 225.987,478.196 226.357,466.611 
	165.278,464.334 166.91,470.205 174.243,475.148 182.259,487.069 188.864,487.327 192.286,496.738 189.494,495.476 188.46,497.756 
	190.131,503.619 195.638,508.461 197.573,507.378 201.315,508.67 201.977,516.815 200.364,522.729 "/>
<polyline fill="#CA6146" stroke="#010101" stroke-width="0.4409" stroke-miterlimit="1.2" points="267.269,563.995 266.209,529.188 
	263.358,529.118 254.958,523.105 250.184,524.139 244.615,519.341 230.564,513.129 225.645,518.772 217.978,520.844 218.74,526.67 
	208.492,520.525 200.817,522.566 200.364,522.729 199.784,524.853 202.466,529.588 200.354,535.314 202.176,537.696 
	199.979,545.737 200.809,549.246 206.453,551.764 210.068,557.689 237.766,558.572 241.521,560.995 253.916,562.498 
	261.589,561.538 265.153,563.813 "/>
<polyline fill="#CA6146" stroke="#010101" stroke-width="0.4409" stroke-miterlimit="1.2" points="298.413,535.683 312.996,575.354 
	311.062,576.481 311.008,579.959 305.255,579.861 294.571,586.616 294.254,587.278 291.69,586.562 289.819,584.208 285.983,584.131 
	278.562,572.376 265.153,563.813 267.269,563.995 266.209,529.188 276.635,530.595 278.433,535.275 301.52,535.605 "/>
<polyline fill="#995A49" stroke="#010101" stroke-width="0.4409" stroke-miterlimit="1.2" points="301.52,535.605 369.772,536.582 
	369.529,574.832 364.612,592.186 362.702,591.01 360.754,594.475 361.693,596.802 351.109,597.869 343.302,608.226 335.596,608.137 
	334.59,611.6 325.961,608.01 327.947,603.398 323.303,591.743 318.533,589.351 305.067,590.293 294.254,587.278 294.571,586.616 
	305.255,579.861 311.008,579.959 311.062,576.481 312.996,575.354 298.413,535.683 "/>
<polyline fill="#526E44" stroke="#010101" stroke-width="0.4409" stroke-miterlimit="1.2" points="554.1,588.187 552.92,590.459 
	553.908,591.592 550.125,594.007 550.53,610.232 548.861,620.712 545.081,624.282 543.288,630.121 539.933,631.826 540.412,631.352 
	461.529,632.172 392.382,632.894 384.656,629.391 385.629,627.077 377.897,627.047 376.943,624.721 381.81,616.629 375.074,613.124 
	375.089,609.638 370.286,607.291 369.354,602.651 368.397,601.489 368.413,599.17 374.21,594.564 374.228,591.086 410.732,592.333 
	410.732,591.173 503.908,590.344 503.849,586.867 555.682,585.747 "/>
<polyline fill="#526E44" stroke="#010101" stroke-width="0.4409" stroke-miterlimit="1.2" points="371.139,469.366 369.772,536.582 
	369.529,574.832 364.612,592.186 362.702,591.01 360.754,594.475 361.693,596.802 369.354,602.651 368.397,601.489 368.413,599.17 
	374.21,594.564 374.228,591.086 410.732,592.333 410.732,591.173 503.908,590.344 503.849,586.867 555.682,585.747 554.1,588.187 
	556.579,583.405 571.626,572.559 571.559,570.237 557.853,559.026 552.632,541.766 545.821,536.143 546.685,532.641 
	542.826,530.415 541.656,521.169 481.232,464.544 482.046,465.48 386.186,469.439 374.252,468.919 "/>
<polyline fill="#995A49" stroke="#010101" stroke-width="0.4409" stroke-miterlimit="1.2" points="373.033,632.818 373.045,630.494 
	375.946,630.511 377.897,627.047 376.943,624.721 381.81,616.629 375.074,613.124 375.089,609.638 370.286,607.291 369.354,602.651 
	361.693,596.802 351.109,597.869 343.302,608.226 354.769,618.77 361.499,622.307 365.32,628.135 366.976,629.43 "/>
<polyline fill="#5DBDBD" stroke="#010101" stroke-width="0.4409" stroke-miterlimit="1.2" points="366.976,629.43 381.708,640.975 
	392.318,660.725 392.289,674.641 395.202,678.129 393.241,682.764 395.195,683.927 397.146,681.611 402.022,687.416 
	401.046,688.573 397.144,685.09 400.068,689.733 400.062,694.375 459.67,689.489 458.399,657.026 460.345,657.009 460.114,632.655 
	461.529,632.172 392.382,632.894 384.656,629.391 385.629,627.077 377.897,627.047 375.946,630.511 373.045,630.494 
	373.033,632.818 "/>
<polyline fill="#5DBDBD" stroke="#010101" stroke-width="0.4409" stroke-miterlimit="1.2" points="460.114,632.655 460.345,657.009 
	458.399,657.026 459.67,689.489 541.518,678.882 548.369,679.884 553.958,669.303 553.752,661.186 550.751,657.777 542.974,657.966 
	540.979,655.693 538.504,632.553 539.933,631.826 540.412,631.352 461.529,632.172 "/>
<circle cx="119.3" cy="318.708" r="5.713"/>
<circle cx="362.554" cy="622.724" r="5.712"/>
<circle cx="404.854" cy="684.56" r="5.712"/>
<circle cx="332.013" cy="594.461" r="5.713"/>
<circle cx="210.554" cy="555.82" r="5.713"/>
<g>
	<g>
		<rect x="369.307" y="-21.973" fill="none" width="262.513" height="327.687"/>
		<path d="M445.348,37.654h6.754c0.616,0,1.191,0.079,1.728,0.235c0.535,0.157,1.004,0.395,1.408,0.715
			c0.403,0.32,0.718,0.715,0.945,1.186c0.228,0.47,0.342,1.025,0.342,1.666c0,0.456-0.085,0.89-0.253,1.303
			c-0.169,0.413-0.4,0.772-0.693,1.079c-0.294,0.306-0.642,0.559-1.045,0.758c-0.404,0.2-0.848,0.313-1.331,0.342v0.042
			c0.513,0.015,1.001,0.11,1.463,0.289s0.865,0.427,1.21,0.748s0.619,0.712,0.825,1.175c0.205,0.463,0.308,0.986,0.308,1.57
			c0,0.684-0.128,1.286-0.385,1.805c-0.257,0.52-0.612,0.951-1.067,1.292c-0.454,0.342-1.001,0.602-1.639,0.78
			c-0.638,0.178-1.331,0.267-2.079,0.267h-6.49V37.654z M445.787,44.746h6.314c0.528,0,1.03-0.067,1.508-0.203
			c0.476-0.135,0.897-0.342,1.265-0.619c0.366-0.278,0.66-0.623,0.88-1.036c0.22-0.413,0.33-0.89,0.33-1.431
			c0-0.569-0.103-1.068-0.308-1.495c-0.206-0.427-0.488-0.78-0.848-1.058c-0.359-0.277-0.781-0.484-1.265-0.619
			c-0.484-0.135-1.005-0.203-1.563-0.203h-6.314V44.746z M445.787,52.479h6.249c0.63,0,1.225-0.075,1.782-0.224
			c0.557-0.149,1.037-0.377,1.44-0.684s0.723-0.69,0.957-1.153s0.353-1.007,0.353-1.634c0-0.669-0.129-1.231-0.386-1.688
			c-0.257-0.456-0.594-0.826-1.012-1.111c-0.418-0.285-0.895-0.491-1.43-0.619c-0.536-0.128-1.082-0.192-1.64-0.192h-6.314V52.479z"
			/>
		<path d="M458.746,47.501c0.015,0.741,0.103,1.428,0.264,2.062s0.422,1.186,0.781,1.655s0.817,0.84,1.375,1.111
			s1.239,0.406,2.046,0.406c1.174,0,2.156-0.306,2.948-0.918s1.283-1.517,1.475-2.713h0.439c-0.073,0.627-0.246,1.193-0.517,1.698
			c-0.271,0.506-0.62,0.933-1.045,1.282c-0.426,0.349-0.913,0.616-1.464,0.801c-0.55,0.185-1.147,0.278-1.793,0.278
			c-0.88,0.014-1.632-0.125-2.255-0.417c-0.624-0.292-1.133-0.698-1.529-1.218c-0.396-0.52-0.689-1.132-0.88-1.837
			c-0.19-0.705-0.286-1.463-0.286-2.275c0-0.911,0.14-1.723,0.418-2.435c0.278-0.712,0.646-1.313,1.101-1.805
			c0.454-0.491,0.979-0.865,1.573-1.122c0.594-0.256,1.213-0.384,1.858-0.384c0.88,0,1.64,0.164,2.277,0.491
			s1.158,0.762,1.563,1.303c0.402,0.542,0.696,1.161,0.88,1.858c0.183,0.698,0.26,1.424,0.23,2.179H458.746z M467.767,47.074
			c0-0.669-0.096-1.306-0.286-1.912c-0.191-0.605-0.474-1.135-0.848-1.591c-0.374-0.456-0.84-0.815-1.396-1.079
			c-0.558-0.264-1.203-0.396-1.937-0.396c-0.616,0-1.191,0.114-1.727,0.342c-0.536,0.228-1.005,0.559-1.408,0.994
			s-0.729,0.958-0.979,1.57c-0.249,0.612-0.396,1.303-0.439,2.072H467.767z"/>
		<path d="M470.407,52.906h-0.44V41.927h0.44v2.712h0.044c0.103-0.398,0.264-0.783,0.483-1.153c0.221-0.37,0.514-0.694,0.881-0.972
			c0.366-0.278,0.803-0.492,1.309-0.641s1.097-0.217,1.771-0.203v0.427c-0.778-0.042-1.449,0.061-2.014,0.31
			s-1.03,0.591-1.396,1.025c-0.367,0.435-0.639,0.937-0.814,1.506c-0.176,0.57-0.264,1.153-0.264,1.751V52.906z"/>
		<path d="M476.105,48.762v4.144h-0.44V37.654h0.44v10.574l7.81-6.301h0.639l-5.192,4.187l5.566,6.792h-0.594l-5.303-6.494
			L476.105,48.762z"/>
		<path d="M485.214,47.501c0.015,0.741,0.103,1.428,0.264,2.062s0.422,1.186,0.781,1.655s0.817,0.84,1.375,1.111
			s1.239,0.406,2.046,0.406c1.174,0,2.156-0.306,2.948-0.918s1.283-1.517,1.475-2.713h0.439c-0.073,0.627-0.246,1.193-0.517,1.698
			c-0.271,0.506-0.62,0.933-1.045,1.282c-0.426,0.349-0.913,0.616-1.464,0.801c-0.55,0.185-1.147,0.278-1.793,0.278
			c-0.88,0.014-1.632-0.125-2.255-0.417c-0.624-0.292-1.133-0.698-1.529-1.218c-0.396-0.52-0.689-1.132-0.88-1.837
			c-0.19-0.705-0.286-1.463-0.286-2.275c0-0.911,0.14-1.723,0.418-2.435c0.278-0.712,0.646-1.313,1.101-1.805
			c0.454-0.491,0.979-0.865,1.573-1.122c0.594-0.256,1.213-0.384,1.858-0.384c0.88,0,1.64,0.164,2.277,0.491
			s1.158,0.762,1.563,1.303c0.402,0.542,0.696,1.161,0.88,1.858c0.183,0.698,0.26,1.424,0.23,2.179H485.214z M494.234,47.074
			c0-0.669-0.096-1.306-0.286-1.912c-0.191-0.605-0.474-1.135-0.848-1.591c-0.374-0.456-0.84-0.815-1.396-1.079
			c-0.558-0.264-1.203-0.396-1.937-0.396c-0.616,0-1.191,0.114-1.727,0.342c-0.536,0.228-1.005,0.559-1.408,0.994
			s-0.729,0.958-0.979,1.57c-0.249,0.612-0.396,1.303-0.439,2.072H494.234z"/>
		<path d="M496.434,37.654h0.44v15.251h-0.44V37.654z"/>
		<path d="M499.074,47.501c0.015,0.741,0.103,1.428,0.264,2.062s0.422,1.186,0.781,1.655s0.817,0.84,1.375,1.111
			s1.239,0.406,2.046,0.406c1.174,0,2.156-0.306,2.948-0.918s1.283-1.517,1.475-2.713h0.439c-0.073,0.627-0.246,1.193-0.517,1.698
			c-0.271,0.506-0.62,0.933-1.045,1.282c-0.426,0.349-0.913,0.616-1.464,0.801c-0.55,0.185-1.147,0.278-1.793,0.278
			c-0.88,0.014-1.632-0.125-2.255-0.417c-0.624-0.292-1.133-0.698-1.529-1.218c-0.396-0.52-0.689-1.132-0.88-1.837
			c-0.19-0.705-0.286-1.463-0.286-2.275c0-0.911,0.14-1.723,0.418-2.435c0.278-0.712,0.646-1.313,1.101-1.805
			c0.454-0.491,0.979-0.865,1.573-1.122c0.594-0.256,1.213-0.384,1.858-0.384c0.88,0,1.64,0.164,2.277,0.491
			s1.158,0.762,1.563,1.303c0.402,0.542,0.696,1.161,0.88,1.858c0.183,0.698,0.26,1.424,0.23,2.179H499.074z M508.095,47.074
			c0-0.669-0.096-1.306-0.286-1.912c-0.191-0.605-0.474-1.135-0.848-1.591c-0.374-0.456-0.84-0.815-1.396-1.079
			c-0.558-0.264-1.203-0.396-1.937-0.396c-0.616,0-1.191,0.114-1.727,0.342c-0.536,0.228-1.005,0.559-1.408,0.994
			s-0.729,0.958-0.979,1.57c-0.249,0.612-0.396,1.303-0.439,2.072H508.095z"/>
		<path d="M517.842,41.927h0.439l-5.192,13.222c-0.146,0.37-0.322,0.659-0.527,0.865c-0.206,0.206-0.434,0.359-0.683,0.459
			c-0.249,0.099-0.524,0.16-0.825,0.181c-0.301,0.021-0.619,0.032-0.957,0.032v-0.427c0.367,0,0.689-0.011,0.969-0.032
			c0.278-0.021,0.517-0.079,0.715-0.171c0.198-0.093,0.374-0.235,0.527-0.427c0.154-0.192,0.298-0.453,0.43-0.78l0.813-2.051
			l-4.729-10.872h0.483l4.488,10.402L517.842,41.927z"/>
		<path d="M445.502,67.47h5.5c0.777,0,1.565,0.118,2.365,0.353c0.799,0.235,1.518,0.641,2.156,1.218
			c0.638,0.577,1.158,1.356,1.562,2.339s0.605,2.221,0.605,3.717c0,1.367-0.206,2.535-0.616,3.503
			c-0.411,0.969-0.961,1.755-1.65,2.36c-0.689,0.605-1.478,1.05-2.365,1.335c-0.888,0.285-1.801,0.427-2.739,0.427h-4.817V67.47z
			 M445.941,82.294h4.488c0.924,0,1.801-0.146,2.629-0.438c0.829-0.292,1.555-0.733,2.179-1.324
			c0.623-0.591,1.114-1.338,1.474-2.243s0.539-1.969,0.539-3.193c0-1.424-0.184-2.599-0.55-3.524
			c-0.367-0.926-0.851-1.663-1.452-2.211s-1.28-0.929-2.035-1.143c-0.756-0.213-1.529-0.32-2.321-0.32h-4.95V82.294z"/>
		<path d="M459.759,75.138c0.028-0.513,0.139-0.993,0.33-1.442c0.19-0.448,0.465-0.836,0.824-1.164
			c0.359-0.327,0.8-0.583,1.32-0.769c0.521-0.185,1.133-0.277,1.837-0.277c0.499,0,0.972,0.05,1.419,0.149s0.84,0.274,1.178,0.523
			c0.337,0.249,0.608,0.573,0.813,0.972c0.205,0.399,0.315,0.897,0.33,1.495v6.985c0,0.214,0.044,0.371,0.132,0.47
			s0.206,0.167,0.353,0.203c0.146,0.036,0.3,0.05,0.462,0.043c0.161-0.007,0.322-0.018,0.484-0.032v0.427
			c-0.221,0.014-0.44,0.021-0.66,0.021c-0.221,0-0.418-0.036-0.595-0.107c-0.176-0.071-0.322-0.182-0.439-0.331
			c-0.118-0.149-0.176-0.367-0.176-0.651v-1.431h-0.044c-0.118,0.356-0.305,0.698-0.562,1.025s-0.579,0.619-0.968,0.875
			s-0.833,0.463-1.331,0.62c-0.499,0.156-1.042,0.235-1.628,0.235c-1.13,0-2.043-0.25-2.739-0.748
			c-0.697-0.499-1.045-1.239-1.045-2.222c0-0.684,0.113-1.231,0.341-1.645s0.524-0.737,0.891-0.972
			c0.367-0.235,0.785-0.398,1.254-0.491c0.47-0.092,0.938-0.153,1.408-0.182c0.777-0.042,1.444-0.082,2.002-0.117
			s1.016-0.107,1.375-0.214c0.359-0.106,0.624-0.27,0.793-0.491c0.168-0.221,0.253-0.537,0.253-0.951
			c0-0.327-0.03-0.669-0.089-1.025s-0.201-0.684-0.429-0.983c-0.228-0.299-0.561-0.544-1.001-0.737
			c-0.439-0.192-1.034-0.289-1.782-0.289c-1.188,0-2.112,0.282-2.771,0.844c-0.66,0.563-1.027,1.356-1.101,2.382H459.759z
			 M467.371,76.271h-0.044c-0.147,0.213-0.374,0.37-0.683,0.47c-0.308,0.1-0.66,0.175-1.056,0.224
			c-0.396,0.05-0.822,0.085-1.276,0.107c-0.455,0.021-0.909,0.046-1.364,0.075c-0.439,0.029-0.869,0.085-1.287,0.171
			s-0.788,0.228-1.11,0.427c-0.323,0.2-0.58,0.48-0.771,0.844s-0.286,0.837-0.286,1.42c0,0.313,0.056,0.623,0.165,0.929
			c0.11,0.307,0.297,0.577,0.562,0.812c0.264,0.235,0.604,0.427,1.022,0.577c0.418,0.149,0.936,0.224,1.552,0.224
			c0.732,0,1.386-0.121,1.958-0.363c0.571-0.242,1.052-0.559,1.44-0.95s0.683-0.844,0.88-1.356c0.198-0.513,0.298-1.04,0.298-1.581
			V76.271z"/>
		<path d="M477.887,71.742h0.484l-4.269,10.979h-0.55l-4.664-10.979h0.527l4.379,10.552h0.044L477.887,71.742z"/>
		<path d="M479.757,69.627h-0.44V67.47h0.44V69.627z M479.757,82.721h-0.44V71.742h0.44V82.721z"/>
		<path d="M489.547,74.989c0-0.555-0.088-1.025-0.264-1.41c-0.176-0.385-0.426-0.701-0.748-0.951
			c-0.323-0.249-0.708-0.431-1.155-0.545c-0.447-0.114-0.942-0.171-1.485-0.171c-0.792,0-1.415,0.104-1.869,0.31
			c-0.455,0.207-0.793,0.445-1.013,0.715c-0.22,0.271-0.359,0.531-0.418,0.78c-0.059,0.25-0.088,0.424-0.088,0.523
			c0,0.541,0.113,0.958,0.341,1.25c0.228,0.292,0.531,0.516,0.913,0.673c0.396,0.157,0.825,0.292,1.287,0.406
			c0.462,0.114,1.001,0.25,1.617,0.406c0.44,0.114,0.876,0.232,1.309,0.353c0.433,0.121,0.821,0.289,1.167,0.502
			c0.344,0.214,0.623,0.484,0.836,0.812c0.212,0.328,0.318,0.755,0.318,1.282c0,0.556-0.121,1.025-0.362,1.41
			c-0.242,0.384-0.558,0.698-0.946,0.939c-0.389,0.243-0.829,0.42-1.32,0.534s-0.979,0.171-1.463,0.171
			c-1.496,0-2.633-0.324-3.41-0.972s-1.166-1.663-1.166-3.044h0.439c0,1.225,0.359,2.129,1.078,2.712
			c0.719,0.584,1.738,0.876,3.059,0.876c0.41,0,0.832-0.046,1.265-0.139s0.825-0.242,1.178-0.449
			c0.352-0.206,0.641-0.473,0.869-0.801c0.227-0.328,0.341-0.727,0.341-1.196c0-0.484-0.114-0.876-0.341-1.175
			c-0.229-0.299-0.521-0.545-0.881-0.737c-0.359-0.192-0.773-0.345-1.243-0.459c-0.469-0.114-0.945-0.228-1.43-0.342
			c-0.543-0.128-1.02-0.249-1.43-0.363c-0.411-0.114-0.778-0.242-1.101-0.384c-0.47-0.199-0.813-0.477-1.034-0.833
			c-0.22-0.356-0.33-0.833-0.33-1.431c0-0.299,0.066-0.612,0.198-0.94s0.353-0.626,0.66-0.897s0.704-0.492,1.188-0.662
			c0.483-0.171,1.078-0.256,1.781-0.256c1.262,0,2.259,0.277,2.992,0.833c0.733,0.555,1.101,1.445,1.101,2.67H489.547z"/>
		<path d="M459.561,97.285h0.726v15.251h-0.44V97.819h-0.044l-6.666,14.717h-0.484l-6.666-14.717h-0.044v14.717h-0.439V97.285h0.726
			l6.645,14.696h0.044L459.561,97.285z"/>
		<path d="M462.465,107.132c0.015,0.741,0.103,1.428,0.264,2.062s0.422,1.186,0.781,1.655s0.817,0.84,1.375,1.111
			s1.239,0.406,2.046,0.406c1.174,0,2.156-0.306,2.948-0.918s1.283-1.517,1.475-2.713h0.439c-0.073,0.627-0.246,1.193-0.517,1.698
			c-0.271,0.506-0.62,0.933-1.045,1.282c-0.426,0.349-0.913,0.616-1.464,0.801c-0.55,0.185-1.147,0.278-1.793,0.278
			c-0.88,0.014-1.632-0.125-2.255-0.417c-0.624-0.292-1.133-0.698-1.529-1.218c-0.396-0.52-0.689-1.132-0.88-1.837
			c-0.19-0.705-0.286-1.463-0.286-2.275c0-0.911,0.14-1.723,0.418-2.435c0.278-0.712,0.646-1.313,1.101-1.805
			c0.454-0.491,0.979-0.865,1.573-1.122c0.594-0.256,1.213-0.384,1.858-0.384c0.88,0,1.64,0.164,2.277,0.491
			s1.158,0.762,1.563,1.303c0.402,0.542,0.696,1.161,0.88,1.858c0.183,0.698,0.26,1.424,0.23,2.179H462.465z M471.485,106.705
			c0-0.669-0.096-1.306-0.286-1.912c-0.191-0.605-0.474-1.135-0.848-1.591c-0.374-0.456-0.84-0.815-1.396-1.079
			c-0.558-0.264-1.203-0.396-1.937-0.396c-0.616,0-1.191,0.114-1.727,0.342c-0.536,0.228-1.005,0.559-1.408,0.994
			s-0.729,0.958-0.979,1.57c-0.249,0.612-0.396,1.303-0.439,2.072H471.485z"/>
		<path d="M474.126,112.537h-0.44v-10.979h0.44v2.712h0.044c0.103-0.398,0.264-0.783,0.483-1.153
			c0.221-0.37,0.514-0.694,0.881-0.972c0.366-0.278,0.803-0.492,1.309-0.641s1.097-0.217,1.771-0.203v0.427
			c-0.778-0.042-1.449,0.061-2.014,0.31s-1.03,0.591-1.396,1.025c-0.367,0.435-0.639,0.937-0.814,1.506
			c-0.176,0.57-0.264,1.153-0.264,1.751V112.537z"/>
		<path d="M488.492,108.798c-0.059,0.613-0.213,1.165-0.462,1.656c-0.25,0.491-0.576,0.911-0.979,1.26s-0.876,0.616-1.419,0.801
			c-0.542,0.185-1.129,0.278-1.76,0.278c-0.807,0-1.521-0.146-2.146-0.438c-0.623-0.292-1.147-0.69-1.572-1.196
			c-0.426-0.505-0.748-1.089-0.969-1.751c-0.22-0.662-0.33-1.37-0.33-2.125c0-0.797,0.106-1.555,0.319-2.274
			s0.535-1.353,0.968-1.901c0.433-0.548,0.979-0.986,1.64-1.313s1.444-0.491,2.354-0.491c0.528,0,1.034,0.078,1.519,0.235
			s0.916,0.384,1.298,0.684c0.381,0.299,0.7,0.673,0.957,1.121c0.257,0.449,0.422,0.965,0.495,1.549h-0.44
			c-0.088-0.527-0.249-0.99-0.483-1.389c-0.235-0.398-0.521-0.729-0.858-0.993c-0.338-0.263-0.719-0.459-1.144-0.587
			c-0.426-0.128-0.873-0.192-1.343-0.192c-0.909,0-1.672,0.168-2.288,0.502c-0.615,0.334-1.11,0.769-1.484,1.303
			s-0.646,1.132-0.814,1.794s-0.253,1.313-0.253,1.954c0,0.67,0.099,1.311,0.297,1.923s0.487,1.153,0.869,1.623
			c0.381,0.47,0.858,0.844,1.43,1.122c0.572,0.278,1.232,0.417,1.98,0.417c0.558,0,1.078-0.082,1.563-0.246
			c0.483-0.164,0.913-0.402,1.287-0.716c0.374-0.313,0.678-0.687,0.912-1.121c0.235-0.434,0.374-0.929,0.419-1.485H488.492z"/>
		<path d="M490.165,107.132c0.015,0.741,0.103,1.428,0.264,2.062s0.422,1.186,0.781,1.655s0.817,0.84,1.375,1.111
			s1.239,0.406,2.046,0.406c1.174,0,2.156-0.306,2.948-0.918s1.283-1.517,1.475-2.713h0.439c-0.073,0.627-0.246,1.193-0.517,1.698
			c-0.271,0.506-0.62,0.933-1.045,1.282c-0.426,0.349-0.913,0.616-1.464,0.801c-0.55,0.185-1.147,0.278-1.793,0.278
			c-0.88,0.014-1.632-0.125-2.255-0.417c-0.624-0.292-1.133-0.698-1.529-1.218c-0.396-0.52-0.689-1.132-0.88-1.837
			c-0.19-0.705-0.286-1.463-0.286-2.275c0-0.911,0.14-1.723,0.418-2.435c0.278-0.712,0.646-1.313,1.101-1.805
			c0.454-0.491,0.979-0.865,1.573-1.122c0.594-0.256,1.213-0.384,1.858-0.384c0.88,0,1.64,0.164,2.277,0.491
			s1.158,0.762,1.563,1.303c0.402,0.542,0.696,1.161,0.88,1.858c0.183,0.698,0.26,1.424,0.23,2.179H490.165z M499.186,106.705
			c0-0.669-0.096-1.306-0.286-1.912c-0.191-0.605-0.474-1.135-0.848-1.591c-0.374-0.456-0.84-0.815-1.396-1.079
			c-0.558-0.264-1.203-0.396-1.937-0.396c-0.616,0-1.191,0.114-1.727,0.342c-0.536,0.228-1.005,0.559-1.408,0.994
			s-0.729,0.958-0.979,1.57c-0.249,0.612-0.396,1.303-0.439,2.072H499.186z"/>
		<path d="M510.186,97.285h0.439v15.251h-0.439v-3.076h-0.044c-0.147,0.484-0.356,0.929-0.627,1.335
			c-0.272,0.406-0.602,0.758-0.99,1.057c-0.389,0.299-0.829,0.531-1.32,0.694s-1.023,0.246-1.595,0.246
			c-0.748,0-1.419-0.143-2.014-0.427c-0.594-0.285-1.1-0.684-1.518-1.196s-0.737-1.118-0.957-1.815
			c-0.221-0.698-0.33-1.459-0.33-2.286c0-0.769,0.103-1.502,0.308-2.2c0.205-0.697,0.514-1.31,0.924-1.837
			c0.411-0.527,0.917-0.947,1.519-1.26c0.602-0.313,1.29-0.47,2.068-0.47c1.202,0,2.192,0.306,2.97,0.918s1.298,1.417,1.563,2.414
			h0.044V97.285z M510.186,107.068c0-0.854-0.11-1.613-0.33-2.275c-0.221-0.662-0.528-1.221-0.924-1.677
			c-0.396-0.456-0.877-0.801-1.441-1.036c-0.564-0.235-1.192-0.353-1.881-0.353c-0.778,0-1.441,0.161-1.991,0.481
			s-1.001,0.733-1.354,1.239c-0.352,0.506-0.612,1.075-0.781,1.709c-0.168,0.634-0.253,1.271-0.253,1.912
			c0,0.712,0.092,1.385,0.275,2.019c0.184,0.634,0.454,1.196,0.814,1.688c0.358,0.491,0.813,0.879,1.363,1.164
			c0.551,0.285,1.191,0.427,1.926,0.427c0.718,0,1.363-0.142,1.936-0.427c0.572-0.285,1.053-0.669,1.441-1.153
			c0.389-0.484,0.686-1.047,0.891-1.688C510.082,108.457,510.186,107.781,510.186,107.068z"/>
		<path d="M455.996,131.373c-0.029-0.783-0.18-1.442-0.451-1.976s-0.631-0.964-1.078-1.292c-0.447-0.327-0.979-0.566-1.595-0.715
			s-1.276-0.224-1.98-0.224c-0.558,0-1.126,0.053-1.705,0.16c-0.579,0.106-1.107,0.295-1.584,0.566s-0.869,0.63-1.177,1.079
			c-0.309,0.449-0.462,1.015-0.462,1.698s0.157,1.232,0.473,1.645c0.315,0.414,0.727,0.748,1.232,1.004s1.081,0.456,1.727,0.598
			c0.646,0.143,1.306,0.292,1.98,0.449c0.733,0.185,1.426,0.36,2.079,0.523c0.652,0.164,1.221,0.392,1.705,0.684
			c0.483,0.292,0.869,0.673,1.155,1.143c0.285,0.47,0.429,1.104,0.429,1.901c0,0.727-0.162,1.346-0.484,1.858
			s-0.748,0.937-1.275,1.271c-0.528,0.335-1.122,0.581-1.782,0.737c-0.66,0.157-1.328,0.235-2.002,0.235
			c-0.896,0-1.721-0.104-2.476-0.31c-0.756-0.206-1.408-0.526-1.958-0.961c-0.55-0.434-0.976-0.993-1.276-1.677
			s-0.443-1.509-0.429-2.478h0.44c0,0.912,0.139,1.684,0.418,2.318c0.278,0.634,0.671,1.15,1.177,1.548
			c0.506,0.399,1.107,0.688,1.804,0.865c0.696,0.178,1.463,0.267,2.3,0.267c0.615,0,1.228-0.067,1.837-0.203
			c0.608-0.135,1.155-0.353,1.639-0.651c0.484-0.299,0.876-0.684,1.177-1.153c0.301-0.47,0.451-1.033,0.451-1.688
			c0-0.769-0.172-1.378-0.517-1.827c-0.345-0.448-0.785-0.804-1.32-1.068c-0.535-0.263-1.13-0.462-1.782-0.598
			c-0.652-0.135-1.279-0.274-1.881-0.417c-0.646-0.142-1.279-0.292-1.903-0.449c-0.623-0.156-1.188-0.374-1.693-0.651
			c-0.507-0.277-0.913-0.644-1.222-1.1c-0.308-0.456-0.462-1.061-0.462-1.815s0.161-1.385,0.484-1.891
			c0.322-0.505,0.74-0.908,1.254-1.207c0.513-0.299,1.089-0.513,1.727-0.641c0.639-0.128,1.272-0.192,1.903-0.192
			c0.763,0,1.475,0.082,2.134,0.246c0.66,0.164,1.236,0.427,1.728,0.79c0.491,0.363,0.884,0.84,1.177,1.431
			c0.294,0.591,0.462,1.314,0.506,2.168H455.996z"/>
		<path d="M458.944,134.769c0.028-0.513,0.139-0.993,0.33-1.442c0.19-0.448,0.465-0.836,0.824-1.164
			c0.359-0.327,0.8-0.583,1.32-0.769c0.521-0.185,1.133-0.277,1.837-0.277c0.499,0,0.972,0.05,1.419,0.149s0.84,0.274,1.178,0.523
			c0.337,0.249,0.608,0.573,0.813,0.972c0.205,0.399,0.315,0.897,0.33,1.495v6.985c0,0.214,0.044,0.371,0.132,0.47
			s0.206,0.167,0.353,0.203c0.146,0.036,0.3,0.05,0.462,0.043c0.161-0.007,0.322-0.018,0.484-0.032v0.427
			c-0.221,0.014-0.44,0.021-0.66,0.021c-0.221,0-0.418-0.036-0.595-0.107c-0.176-0.071-0.322-0.182-0.439-0.331
			c-0.118-0.149-0.176-0.367-0.176-0.651v-1.431h-0.044c-0.118,0.356-0.305,0.698-0.562,1.025s-0.579,0.619-0.968,0.875
			s-0.833,0.463-1.331,0.62c-0.499,0.156-1.042,0.235-1.628,0.235c-1.13,0-2.043-0.25-2.739-0.748
			c-0.697-0.499-1.045-1.239-1.045-2.222c0-0.684,0.113-1.231,0.341-1.645s0.524-0.737,0.891-0.972
			c0.367-0.235,0.785-0.398,1.254-0.491c0.47-0.092,0.938-0.153,1.408-0.182c0.777-0.042,1.444-0.082,2.002-0.117
			s1.016-0.107,1.375-0.214c0.359-0.106,0.624-0.27,0.793-0.491c0.168-0.221,0.253-0.537,0.253-0.951
			c0-0.327-0.03-0.669-0.089-1.025s-0.201-0.684-0.429-0.983c-0.228-0.299-0.561-0.544-1.001-0.737
			c-0.439-0.192-1.034-0.289-1.782-0.289c-1.188,0-2.112,0.282-2.771,0.844c-0.66,0.563-1.027,1.356-1.101,2.382H458.944z
			 M466.557,135.901h-0.044c-0.147,0.213-0.374,0.37-0.683,0.47c-0.308,0.1-0.66,0.175-1.056,0.224
			c-0.396,0.05-0.822,0.085-1.276,0.107c-0.455,0.021-0.909,0.046-1.364,0.075c-0.439,0.029-0.869,0.085-1.287,0.171
			s-0.788,0.228-1.11,0.427c-0.323,0.2-0.58,0.48-0.771,0.844s-0.286,0.837-0.286,1.42c0,0.313,0.056,0.623,0.165,0.929
			c0.11,0.307,0.297,0.577,0.562,0.812c0.264,0.235,0.604,0.427,1.022,0.577c0.418,0.149,0.936,0.224,1.552,0.224
			c0.732,0,1.386-0.121,1.958-0.363c0.571-0.242,1.052-0.559,1.44-0.95s0.683-0.844,0.88-1.356c0.198-0.513,0.298-1.04,0.298-1.581
			V135.901z"/>
		<path d="M469.548,131.373h0.44v2.712h0.044c0.103-0.427,0.268-0.818,0.495-1.175c0.227-0.355,0.513-0.669,0.857-0.94
			c0.345-0.27,0.744-0.48,1.199-0.63c0.454-0.149,0.961-0.224,1.519-0.224c0.586,0,1.125,0.085,1.616,0.256
			c0.492,0.17,0.917,0.424,1.276,0.758s0.639,0.748,0.836,1.239c0.198,0.491,0.297,1.057,0.297,1.698v7.284h-0.439v-7.22
			c0-0.641-0.096-1.186-0.286-1.634c-0.19-0.448-0.451-0.818-0.781-1.111c-0.33-0.292-0.712-0.505-1.144-0.641
			c-0.434-0.135-0.892-0.203-1.375-0.203c-0.675,0-1.27,0.125-1.782,0.374c-0.514,0.25-0.942,0.584-1.287,1.004
			c-0.345,0.42-0.605,0.908-0.781,1.463c-0.176,0.555-0.264,1.139-0.264,1.751v6.216h-0.44V131.373z"/>
		<path d="M481.759,131.8v8.416c0,0.414,0.048,0.734,0.144,0.961c0.095,0.228,0.216,0.399,0.362,0.513
			c0.146,0.114,0.309,0.182,0.484,0.203c0.176,0.021,0.352,0.032,0.528,0.032c0.22,0,0.418-0.003,0.594-0.011
			c0.176-0.007,0.301-0.024,0.374-0.053v0.427c-0.132,0.014-0.261,0.029-0.385,0.042c-0.125,0.015-0.356,0.021-0.693,0.021
			c-0.514,0-0.95-0.146-1.309-0.438c-0.36-0.292-0.539-0.829-0.539-1.613V131.8h-2.091v-0.427h2.091v-3.46h0.439v3.46h2.553v0.427
			H481.759z"/>
		<path d="M485.829,134.769c0.028-0.513,0.139-0.993,0.33-1.442c0.19-0.448,0.465-0.836,0.824-1.164
			c0.359-0.327,0.8-0.583,1.32-0.769c0.521-0.185,1.133-0.277,1.837-0.277c0.499,0,0.972,0.05,1.419,0.149s0.84,0.274,1.178,0.523
			c0.337,0.249,0.608,0.573,0.813,0.972c0.205,0.399,0.315,0.897,0.33,1.495v6.985c0,0.214,0.044,0.371,0.132,0.47
			s0.206,0.167,0.353,0.203c0.146,0.036,0.3,0.05,0.462,0.043c0.161-0.007,0.322-0.018,0.484-0.032v0.427
			c-0.221,0.014-0.44,0.021-0.66,0.021c-0.221,0-0.418-0.036-0.595-0.107c-0.176-0.071-0.322-0.182-0.439-0.331
			c-0.118-0.149-0.176-0.367-0.176-0.651v-1.431h-0.044c-0.118,0.356-0.305,0.698-0.562,1.025s-0.579,0.619-0.968,0.875
			s-0.833,0.463-1.331,0.62c-0.499,0.156-1.042,0.235-1.628,0.235c-1.13,0-2.043-0.25-2.739-0.748
			c-0.697-0.499-1.045-1.239-1.045-2.222c0-0.684,0.113-1.231,0.341-1.645s0.524-0.737,0.891-0.972
			c0.367-0.235,0.785-0.398,1.254-0.491c0.47-0.092,0.938-0.153,1.408-0.182c0.777-0.042,1.444-0.082,2.002-0.117
			s1.016-0.107,1.375-0.214c0.359-0.106,0.624-0.27,0.793-0.491c0.168-0.221,0.253-0.537,0.253-0.951
			c0-0.327-0.03-0.669-0.089-1.025s-0.201-0.684-0.429-0.983c-0.228-0.299-0.561-0.544-1.001-0.737
			c-0.439-0.192-1.034-0.289-1.782-0.289c-1.188,0-2.112,0.282-2.771,0.844c-0.66,0.563-1.027,1.356-1.101,2.382H485.829z
			 M493.441,135.901h-0.044c-0.147,0.213-0.374,0.37-0.683,0.47c-0.308,0.1-0.66,0.175-1.056,0.224
			c-0.396,0.05-0.822,0.085-1.276,0.107c-0.455,0.021-0.909,0.046-1.364,0.075c-0.439,0.029-0.869,0.085-1.287,0.171
			s-0.788,0.228-1.11,0.427c-0.323,0.2-0.58,0.48-0.771,0.844s-0.286,0.837-0.286,1.42c0,0.313,0.056,0.623,0.165,0.929
			c0.11,0.307,0.297,0.577,0.562,0.812c0.264,0.235,0.604,0.427,1.022,0.577c0.418,0.149,0.936,0.224,1.552,0.224
			c0.732,0,1.386-0.121,1.958-0.363c0.571-0.242,1.052-0.559,1.44-0.95s0.683-0.844,0.88-1.356c0.198-0.513,0.298-1.04,0.298-1.581
			V135.901z"/>
		<path d="M515.903,136.371c-0.132,0.926-0.382,1.777-0.748,2.553c-0.366,0.776-0.84,1.445-1.419,2.008s-1.269,1-2.068,1.313
			c-0.799,0.313-1.69,0.47-2.673,0.47c-1.042,0-1.999-0.196-2.871-0.587c-0.873-0.392-1.625-0.937-2.255-1.634
			c-0.631-0.697-1.119-1.527-1.463-2.488c-0.345-0.961-0.518-2.011-0.518-3.151c0-0.925,0.136-1.869,0.407-2.83
			c0.271-0.961,0.7-1.833,1.287-2.617c0.586-0.783,1.35-1.424,2.288-1.922s2.075-0.748,3.41-0.748c1.041,0,1.95,0.167,2.729,0.502
			c0.776,0.334,1.426,0.755,1.946,1.26s0.913,1.043,1.178,1.613c0.264,0.569,0.403,1.089,0.418,1.559h-0.44
			c-0.044-0.555-0.213-1.1-0.506-1.634c-0.294-0.534-0.693-1.015-1.199-1.441c-0.506-0.427-1.107-0.772-1.804-1.036
			c-0.697-0.263-1.471-0.395-2.321-0.395c-0.865,0-1.636,0.117-2.311,0.352c-0.675,0.235-1.269,0.548-1.781,0.94
			c-0.514,0.392-0.954,0.848-1.32,1.367c-0.367,0.52-0.664,1.064-0.892,1.634c-0.228,0.569-0.393,1.146-0.494,1.73
			c-0.104,0.584-0.154,1.14-0.154,1.666c0,0.969,0.146,1.901,0.439,2.798c0.294,0.897,0.727,1.688,1.299,2.371
			c0.571,0.684,1.271,1.232,2.101,1.645c0.828,0.413,1.771,0.62,2.827,0.62c0.938,0,1.782-0.149,2.53-0.449
			c0.748-0.299,1.394-0.712,1.936-1.239c0.543-0.527,0.983-1.153,1.32-1.88c0.338-0.726,0.564-1.509,0.683-2.35H515.903z"/>
		<path d="M518.06,142.352h-0.44v-10.979h0.44v2.712h0.044c0.103-0.398,0.264-0.783,0.483-1.153c0.221-0.37,0.514-0.694,0.881-0.972
			c0.366-0.278,0.803-0.492,1.309-0.641s1.097-0.217,1.771-0.203v0.427c-0.778-0.042-1.449,0.061-2.014,0.31
			s-1.03,0.591-1.396,1.025c-0.367,0.435-0.639,0.937-0.814,1.506c-0.176,0.57-0.264,1.153-0.264,1.751V142.352z"/>
		<path d="M531.897,142.352h-0.439v-2.713h-0.044c-0.103,0.427-0.268,0.819-0.495,1.175c-0.228,0.356-0.514,0.669-0.858,0.94
			s-0.744,0.48-1.199,0.63c-0.454,0.149-0.96,0.224-1.518,0.224c-0.587,0-1.126-0.085-1.617-0.256s-0.917-0.423-1.276-0.758
			c-0.359-0.334-0.638-0.748-0.836-1.239s-0.297-1.058-0.297-1.698v-7.284h0.44v7.22c0,0.641,0.095,1.186,0.286,1.634
			c0.19,0.449,0.45,0.819,0.78,1.111c0.33,0.292,0.712,0.506,1.145,0.641c0.433,0.136,0.891,0.203,1.375,0.203
			c0.675,0,1.269-0.125,1.782-0.374c0.513-0.249,0.942-0.583,1.287-1.004c0.344-0.419,0.604-0.908,0.78-1.463
			c0.177-0.556,0.265-1.139,0.265-1.751v-6.216h0.439V142.352z"/>
		<path d="M541.931,141.925v0.427h-8.712v-0.534l7.92-10.018h-7.326v-0.427h7.767v0.534l-7.921,10.018H541.931z"/>
		<path d="M455.996,161.189c-0.029-0.783-0.18-1.442-0.451-1.976s-0.631-0.964-1.078-1.292c-0.447-0.327-0.979-0.566-1.595-0.715
			s-1.276-0.224-1.98-0.224c-0.558,0-1.126,0.053-1.705,0.16c-0.579,0.106-1.107,0.295-1.584,0.566s-0.869,0.63-1.177,1.079
			c-0.309,0.449-0.462,1.015-0.462,1.698s0.157,1.232,0.473,1.645c0.315,0.414,0.727,0.748,1.232,1.004s1.081,0.456,1.727,0.598
			c0.646,0.143,1.306,0.292,1.98,0.449c0.733,0.185,1.426,0.36,2.079,0.523c0.652,0.164,1.221,0.392,1.705,0.684
			c0.483,0.292,0.869,0.673,1.155,1.143c0.285,0.47,0.429,1.104,0.429,1.901c0,0.727-0.162,1.346-0.484,1.858
			s-0.748,0.937-1.275,1.271c-0.528,0.335-1.122,0.581-1.782,0.737c-0.66,0.157-1.328,0.235-2.002,0.235
			c-0.896,0-1.721-0.104-2.476-0.31c-0.756-0.206-1.408-0.526-1.958-0.961c-0.55-0.434-0.976-0.993-1.276-1.677
			s-0.443-1.509-0.429-2.478h0.44c0,0.912,0.139,1.684,0.418,2.318c0.278,0.634,0.671,1.15,1.177,1.548
			c0.506,0.399,1.107,0.688,1.804,0.865c0.696,0.178,1.463,0.267,2.3,0.267c0.615,0,1.228-0.067,1.837-0.203
			c0.608-0.135,1.155-0.353,1.639-0.651c0.484-0.299,0.876-0.684,1.177-1.153c0.301-0.47,0.451-1.033,0.451-1.688
			c0-0.769-0.172-1.378-0.517-1.827c-0.345-0.448-0.785-0.804-1.32-1.068c-0.535-0.263-1.13-0.462-1.782-0.598
			c-0.652-0.135-1.279-0.274-1.881-0.417c-0.646-0.142-1.279-0.292-1.903-0.449c-0.623-0.156-1.188-0.374-1.693-0.651
			c-0.507-0.277-0.913-0.644-1.222-1.1c-0.308-0.456-0.462-1.061-0.462-1.815s0.161-1.385,0.484-1.891
			c0.322-0.505,0.74-0.908,1.254-1.207c0.513-0.299,1.089-0.513,1.727-0.641c0.639-0.128,1.272-0.192,1.903-0.192
			c0.763,0,1.475,0.082,2.134,0.246c0.66,0.164,1.236,0.427,1.728,0.79c0.491,0.363,0.884,0.84,1.177,1.431
			c0.294,0.591,0.462,1.314,0.506,2.168H455.996z"/>
		<path d="M458.944,164.585c0.028-0.513,0.139-0.993,0.33-1.442c0.19-0.448,0.465-0.836,0.824-1.164
			c0.359-0.327,0.8-0.583,1.32-0.769c0.521-0.185,1.133-0.277,1.837-0.277c0.499,0,0.972,0.05,1.419,0.149s0.84,0.274,1.178,0.523
			c0.337,0.249,0.608,0.573,0.813,0.972c0.205,0.399,0.315,0.897,0.33,1.495v6.985c0,0.214,0.044,0.371,0.132,0.47
			s0.206,0.167,0.353,0.203c0.146,0.036,0.3,0.05,0.462,0.043c0.161-0.007,0.322-0.018,0.484-0.032v0.427
			c-0.221,0.014-0.44,0.021-0.66,0.021c-0.221,0-0.418-0.036-0.595-0.107c-0.176-0.071-0.322-0.182-0.439-0.331
			c-0.118-0.149-0.176-0.367-0.176-0.651v-1.431h-0.044c-0.118,0.356-0.305,0.698-0.562,1.025s-0.579,0.619-0.968,0.875
			s-0.833,0.463-1.331,0.62c-0.499,0.156-1.042,0.235-1.628,0.235c-1.13,0-2.043-0.25-2.739-0.748
			c-0.697-0.499-1.045-1.239-1.045-2.222c0-0.684,0.113-1.231,0.341-1.645s0.524-0.737,0.891-0.972
			c0.367-0.235,0.785-0.398,1.254-0.491c0.47-0.092,0.938-0.153,1.408-0.182c0.777-0.042,1.444-0.082,2.002-0.117
			s1.016-0.107,1.375-0.214c0.359-0.106,0.624-0.27,0.793-0.491c0.168-0.221,0.253-0.537,0.253-0.951
			c0-0.327-0.03-0.669-0.089-1.025s-0.201-0.684-0.429-0.983c-0.228-0.299-0.561-0.544-1.001-0.737
			c-0.439-0.192-1.034-0.289-1.782-0.289c-1.188,0-2.112,0.282-2.771,0.844c-0.66,0.563-1.027,1.356-1.101,2.382H458.944z
			 M466.557,165.717h-0.044c-0.147,0.213-0.374,0.37-0.683,0.47c-0.308,0.1-0.66,0.175-1.056,0.224
			c-0.396,0.05-0.822,0.085-1.276,0.107c-0.455,0.021-0.909,0.046-1.364,0.075c-0.439,0.029-0.869,0.085-1.287,0.171
			s-0.788,0.228-1.11,0.427c-0.323,0.2-0.58,0.48-0.771,0.844s-0.286,0.837-0.286,1.42c0,0.313,0.056,0.623,0.165,0.929
			c0.11,0.307,0.297,0.577,0.562,0.812c0.264,0.235,0.604,0.427,1.022,0.577c0.418,0.149,0.936,0.224,1.552,0.224
			c0.732,0,1.386-0.121,1.958-0.363c0.571-0.242,1.052-0.559,1.44-0.95s0.683-0.844,0.88-1.356c0.198-0.513,0.298-1.04,0.298-1.581
			V165.717z"/>
		<path d="M469.548,161.189h0.44v2.712h0.044c0.103-0.427,0.268-0.818,0.495-1.175c0.227-0.355,0.513-0.669,0.857-0.94
			c0.345-0.27,0.744-0.48,1.199-0.63c0.454-0.149,0.961-0.224,1.519-0.224c0.586,0,1.125,0.085,1.616,0.256
			c0.492,0.17,0.917,0.424,1.276,0.758s0.639,0.748,0.836,1.239c0.198,0.491,0.297,1.057,0.297,1.698v7.284h-0.439v-7.22
			c0-0.641-0.096-1.186-0.286-1.634c-0.19-0.448-0.451-0.818-0.781-1.111c-0.33-0.292-0.712-0.505-1.144-0.641
			c-0.434-0.135-0.892-0.203-1.375-0.203c-0.675,0-1.27,0.125-1.782,0.374c-0.514,0.25-0.942,0.584-1.287,1.004
			c-0.345,0.42-0.605,0.908-0.781,1.463c-0.176,0.555-0.264,1.139-0.264,1.751v6.216h-0.44V161.189z"/>
		<path d="M481.759,161.616v8.416c0,0.414,0.048,0.734,0.144,0.961c0.095,0.228,0.216,0.399,0.362,0.513
			c0.146,0.114,0.309,0.182,0.484,0.203c0.176,0.021,0.352,0.032,0.528,0.032c0.22,0,0.418-0.003,0.594-0.011
			c0.176-0.007,0.301-0.024,0.374-0.053v0.427c-0.132,0.014-0.261,0.029-0.385,0.042c-0.125,0.015-0.356,0.021-0.693,0.021
			c-0.514,0-0.95-0.146-1.309-0.438c-0.36-0.292-0.539-0.829-0.539-1.613v-8.501h-2.091v-0.427h2.091v-3.46h0.439v3.46h2.553v0.427
			H481.759z"/>
		<path d="M485.829,164.585c0.028-0.513,0.139-0.993,0.33-1.442c0.19-0.448,0.465-0.836,0.824-1.164
			c0.359-0.327,0.8-0.583,1.32-0.769c0.521-0.185,1.133-0.277,1.837-0.277c0.499,0,0.972,0.05,1.419,0.149s0.84,0.274,1.178,0.523
			c0.337,0.249,0.608,0.573,0.813,0.972c0.205,0.399,0.315,0.897,0.33,1.495v6.985c0,0.214,0.044,0.371,0.132,0.47
			s0.206,0.167,0.353,0.203c0.146,0.036,0.3,0.05,0.462,0.043c0.161-0.007,0.322-0.018,0.484-0.032v0.427
			c-0.221,0.014-0.44,0.021-0.66,0.021c-0.221,0-0.418-0.036-0.595-0.107c-0.176-0.071-0.322-0.182-0.439-0.331
			c-0.118-0.149-0.176-0.367-0.176-0.651v-1.431h-0.044c-0.118,0.356-0.305,0.698-0.562,1.025s-0.579,0.619-0.968,0.875
			s-0.833,0.463-1.331,0.62c-0.499,0.156-1.042,0.235-1.628,0.235c-1.13,0-2.043-0.25-2.739-0.748
			c-0.697-0.499-1.045-1.239-1.045-2.222c0-0.684,0.113-1.231,0.341-1.645s0.524-0.737,0.891-0.972
			c0.367-0.235,0.785-0.398,1.254-0.491c0.47-0.092,0.938-0.153,1.408-0.182c0.777-0.042,1.444-0.082,2.002-0.117
			s1.016-0.107,1.375-0.214c0.359-0.106,0.624-0.27,0.793-0.491c0.168-0.221,0.253-0.537,0.253-0.951
			c0-0.327-0.03-0.669-0.089-1.025s-0.201-0.684-0.429-0.983c-0.228-0.299-0.561-0.544-1.001-0.737
			c-0.439-0.192-1.034-0.289-1.782-0.289c-1.188,0-2.112,0.282-2.771,0.844c-0.66,0.563-1.027,1.356-1.101,2.382H485.829z
			 M493.441,165.717h-0.044c-0.147,0.213-0.374,0.37-0.683,0.47c-0.308,0.1-0.66,0.175-1.056,0.224
			c-0.396,0.05-0.822,0.085-1.276,0.107c-0.455,0.021-0.909,0.046-1.364,0.075c-0.439,0.029-0.869,0.085-1.287,0.171
			s-0.788,0.228-1.11,0.427c-0.323,0.2-0.58,0.48-0.771,0.844s-0.286,0.837-0.286,1.42c0,0.313,0.056,0.623,0.165,0.929
			c0.11,0.307,0.297,0.577,0.562,0.812c0.264,0.235,0.604,0.427,1.022,0.577c0.418,0.149,0.936,0.224,1.552,0.224
			c0.732,0,1.386-0.121,1.958-0.363c0.571-0.242,1.052-0.559,1.44-0.95s0.683-0.844,0.88-1.356c0.198-0.513,0.298-1.04,0.298-1.581
			V165.717z"/>
		<path d="M502.373,156.917h6.754c0.616,0,1.191,0.079,1.728,0.235c0.535,0.157,1.004,0.395,1.408,0.715
			c0.403,0.32,0.718,0.715,0.945,1.186c0.228,0.47,0.342,1.025,0.342,1.666c0,0.456-0.085,0.89-0.253,1.303
			c-0.169,0.413-0.4,0.772-0.693,1.079c-0.294,0.306-0.642,0.559-1.045,0.758c-0.404,0.2-0.848,0.313-1.331,0.342v0.042
			c0.513,0.015,1.001,0.11,1.463,0.289s0.865,0.427,1.21,0.748s0.619,0.712,0.825,1.175c0.205,0.463,0.308,0.986,0.308,1.57
			c0,0.684-0.128,1.286-0.385,1.805c-0.257,0.52-0.612,0.951-1.067,1.292c-0.454,0.342-1.001,0.602-1.639,0.78
			c-0.638,0.178-1.331,0.267-2.079,0.267h-6.49V156.917z M502.813,164.008h6.314c0.528,0,1.03-0.067,1.508-0.203
			c0.476-0.135,0.897-0.342,1.265-0.619c0.366-0.278,0.66-0.623,0.88-1.036c0.22-0.413,0.33-0.89,0.33-1.431
			c0-0.569-0.103-1.068-0.308-1.495c-0.206-0.427-0.488-0.78-0.848-1.058c-0.359-0.277-0.781-0.484-1.265-0.619
			c-0.484-0.135-1.005-0.203-1.563-0.203h-6.314V164.008z M502.813,171.741h6.249c0.63,0,1.225-0.075,1.782-0.224
			c0.557-0.149,1.037-0.377,1.44-0.684s0.723-0.69,0.957-1.153s0.353-1.007,0.353-1.634c0-0.669-0.129-1.231-0.386-1.688
			c-0.257-0.456-0.594-0.826-1.012-1.111c-0.418-0.285-0.895-0.491-1.43-0.619c-0.536-0.128-1.082-0.192-1.64-0.192h-6.314V171.741z
			"/>
		<path d="M515.97,164.585c0.028-0.513,0.139-0.993,0.33-1.442c0.19-0.448,0.465-0.836,0.824-1.164
			c0.359-0.327,0.8-0.583,1.32-0.769c0.521-0.185,1.133-0.277,1.837-0.277c0.499,0,0.972,0.05,1.419,0.149s0.84,0.274,1.178,0.523
			c0.337,0.249,0.608,0.573,0.813,0.972c0.205,0.399,0.315,0.897,0.33,1.495v6.985c0,0.214,0.044,0.371,0.132,0.47
			s0.206,0.167,0.353,0.203c0.146,0.036,0.3,0.05,0.462,0.043c0.161-0.007,0.322-0.018,0.484-0.032v0.427
			c-0.221,0.014-0.44,0.021-0.66,0.021c-0.221,0-0.418-0.036-0.595-0.107c-0.176-0.071-0.322-0.182-0.439-0.331
			c-0.118-0.149-0.176-0.367-0.176-0.651v-1.431h-0.044c-0.118,0.356-0.305,0.698-0.562,1.025s-0.579,0.619-0.968,0.875
			s-0.833,0.463-1.331,0.62c-0.499,0.156-1.042,0.235-1.628,0.235c-1.13,0-2.043-0.25-2.739-0.748
			c-0.697-0.499-1.045-1.239-1.045-2.222c0-0.684,0.113-1.231,0.341-1.645s0.524-0.737,0.891-0.972
			c0.367-0.235,0.785-0.398,1.254-0.491c0.47-0.092,0.938-0.153,1.408-0.182c0.777-0.042,1.444-0.082,2.002-0.117
			s1.016-0.107,1.375-0.214c0.359-0.106,0.624-0.27,0.793-0.491c0.168-0.221,0.253-0.537,0.253-0.951
			c0-0.327-0.03-0.669-0.089-1.025s-0.201-0.684-0.429-0.983c-0.228-0.299-0.561-0.544-1.001-0.737
			c-0.439-0.192-1.034-0.289-1.782-0.289c-1.188,0-2.112,0.282-2.771,0.844c-0.66,0.563-1.027,1.356-1.101,2.382H515.97z
			 M523.582,165.717h-0.044c-0.147,0.213-0.374,0.37-0.683,0.47c-0.308,0.1-0.66,0.175-1.056,0.224
			c-0.396,0.05-0.822,0.085-1.276,0.107c-0.455,0.021-0.909,0.046-1.364,0.075c-0.439,0.029-0.869,0.085-1.287,0.171
			s-0.788,0.228-1.11,0.427c-0.323,0.2-0.58,0.48-0.771,0.844s-0.286,0.837-0.286,1.42c0,0.313,0.056,0.623,0.165,0.929
			c0.11,0.307,0.297,0.577,0.562,0.812c0.264,0.235,0.604,0.427,1.022,0.577c0.418,0.149,0.936,0.224,1.552,0.224
			c0.732,0,1.386-0.121,1.958-0.363c0.571-0.242,1.052-0.559,1.44-0.95s0.683-0.844,0.88-1.356c0.198-0.513,0.298-1.04,0.298-1.581
			V165.717z"/>
		<path d="M527.014,172.168h-0.44v-10.979h0.44v2.712h0.044c0.103-0.398,0.264-0.783,0.483-1.153
			c0.221-0.37,0.514-0.694,0.881-0.972c0.366-0.278,0.803-0.492,1.309-0.641s1.097-0.217,1.771-0.203v0.427
			c-0.778-0.042-1.449,0.061-2.014,0.31s-1.03,0.591-1.396,1.025c-0.367,0.435-0.639,0.937-0.814,1.506
			c-0.176,0.57-0.264,1.153-0.264,1.751V172.168z"/>
		<path d="M532.712,164.265h0.044c0.264-0.997,0.784-1.801,1.562-2.414s1.768-0.918,2.971-0.918c0.777,0,1.466,0.157,2.067,0.47
			c0.602,0.313,1.104,0.733,1.508,1.26c0.403,0.527,0.711,1.14,0.924,1.837c0.212,0.698,0.319,1.431,0.319,2.2
			c0,0.826-0.11,1.588-0.33,2.286c-0.221,0.698-0.539,1.303-0.957,1.815s-0.925,0.912-1.519,1.196s-1.265,0.427-2.013,0.427
			c-0.572,0-1.104-0.082-1.596-0.246s-0.932-0.395-1.319-0.694c-0.39-0.299-0.719-0.651-0.99-1.057s-0.48-0.851-0.627-1.335h-0.044
			v3.076h-0.44v-15.251h0.44V164.265z M532.712,166.7c0,0.712,0.103,1.388,0.308,2.029c0.205,0.641,0.502,1.204,0.892,1.688
			c0.388,0.484,0.865,0.869,1.43,1.153c0.564,0.285,1.214,0.427,1.947,0.427s1.375-0.142,1.925-0.427
			c0.55-0.285,1.005-0.673,1.364-1.164s0.63-1.054,0.813-1.688c0.184-0.633,0.275-1.306,0.275-2.019
			c0-0.641-0.085-1.278-0.253-1.912c-0.169-0.634-0.429-1.203-0.781-1.709c-0.352-0.505-0.803-0.918-1.353-1.239
			c-0.551-0.32-1.214-0.481-1.991-0.481c-0.689,0-1.317,0.118-1.882,0.353c-0.564,0.235-1.045,0.581-1.44,1.036
			c-0.396,0.456-0.704,1.015-0.924,1.677C532.821,165.087,532.712,165.845,532.712,166.7z"/>
		<path d="M544.064,164.585c0.028-0.513,0.139-0.993,0.33-1.442c0.19-0.448,0.465-0.836,0.824-1.164
			c0.359-0.327,0.8-0.583,1.32-0.769c0.521-0.185,1.133-0.277,1.837-0.277c0.499,0,0.972,0.05,1.419,0.149s0.84,0.274,1.178,0.523
			c0.337,0.249,0.608,0.573,0.813,0.972c0.205,0.399,0.315,0.897,0.33,1.495v6.985c0,0.214,0.044,0.371,0.132,0.47
			s0.206,0.167,0.353,0.203c0.146,0.036,0.3,0.05,0.462,0.043c0.161-0.007,0.322-0.018,0.484-0.032v0.427
			c-0.221,0.014-0.44,0.021-0.66,0.021c-0.221,0-0.418-0.036-0.595-0.107c-0.176-0.071-0.322-0.182-0.439-0.331
			c-0.118-0.149-0.176-0.367-0.176-0.651v-1.431h-0.044c-0.118,0.356-0.305,0.698-0.562,1.025s-0.579,0.619-0.968,0.875
			s-0.833,0.463-1.331,0.62c-0.499,0.156-1.042,0.235-1.628,0.235c-1.13,0-2.043-0.25-2.739-0.748
			c-0.697-0.499-1.045-1.239-1.045-2.222c0-0.684,0.113-1.231,0.341-1.645s0.524-0.737,0.891-0.972
			c0.367-0.235,0.785-0.398,1.254-0.491c0.47-0.092,0.938-0.153,1.408-0.182c0.777-0.042,1.444-0.082,2.002-0.117
			s1.016-0.107,1.375-0.214c0.359-0.106,0.624-0.27,0.793-0.491c0.168-0.221,0.253-0.537,0.253-0.951
			c0-0.327-0.03-0.669-0.089-1.025s-0.201-0.684-0.429-0.983c-0.228-0.299-0.561-0.544-1.001-0.737
			c-0.439-0.192-1.034-0.289-1.782-0.289c-1.188,0-2.112,0.282-2.771,0.844c-0.66,0.563-1.027,1.356-1.101,2.382H544.064z
			 M551.677,165.717h-0.044c-0.147,0.213-0.374,0.37-0.683,0.47c-0.308,0.1-0.66,0.175-1.056,0.224
			c-0.396,0.05-0.822,0.085-1.276,0.107c-0.455,0.021-0.909,0.046-1.364,0.075c-0.439,0.029-0.869,0.085-1.287,0.171
			s-0.788,0.228-1.11,0.427c-0.323,0.2-0.58,0.48-0.771,0.844s-0.286,0.837-0.286,1.42c0,0.313,0.056,0.623,0.165,0.929
			c0.11,0.307,0.297,0.577,0.562,0.812c0.264,0.235,0.604,0.427,1.022,0.577c0.418,0.149,0.936,0.224,1.552,0.224
			c0.732,0,1.386-0.121,1.958-0.363c0.571-0.242,1.052-0.559,1.44-0.95s0.683-0.844,0.88-1.356c0.198-0.513,0.298-1.04,0.298-1.581
			V165.717z"/>
		<path d="M555.108,172.168h-0.44v-10.979h0.44v2.712h0.044c0.103-0.398,0.264-0.783,0.483-1.153
			c0.221-0.37,0.514-0.694,0.881-0.972c0.366-0.278,0.803-0.492,1.309-0.641s1.097-0.217,1.771-0.203v0.427
			c-0.778-0.042-1.449,0.061-2.014,0.31s-1.03,0.591-1.396,1.025c-0.367,0.435-0.639,0.937-0.814,1.506
			c-0.176,0.57-0.264,1.153-0.264,1.751V172.168z"/>
		<path d="M560.345,164.585c0.028-0.513,0.139-0.993,0.33-1.442c0.19-0.448,0.465-0.836,0.824-1.164
			c0.359-0.327,0.8-0.583,1.32-0.769c0.521-0.185,1.133-0.277,1.837-0.277c0.499,0,0.972,0.05,1.419,0.149s0.84,0.274,1.178,0.523
			c0.337,0.249,0.608,0.573,0.813,0.972c0.205,0.399,0.315,0.897,0.33,1.495v6.985c0,0.214,0.044,0.371,0.132,0.47
			s0.206,0.167,0.353,0.203c0.146,0.036,0.3,0.05,0.462,0.043c0.161-0.007,0.322-0.018,0.484-0.032v0.427
			c-0.221,0.014-0.44,0.021-0.66,0.021c-0.221,0-0.418-0.036-0.595-0.107c-0.176-0.071-0.322-0.182-0.439-0.331
			c-0.118-0.149-0.176-0.367-0.176-0.651v-1.431h-0.044c-0.118,0.356-0.305,0.698-0.562,1.025s-0.579,0.619-0.968,0.875
			s-0.833,0.463-1.331,0.62c-0.499,0.156-1.042,0.235-1.628,0.235c-1.13,0-2.043-0.25-2.739-0.748
			c-0.697-0.499-1.045-1.239-1.045-2.222c0-0.684,0.113-1.231,0.341-1.645s0.524-0.737,0.891-0.972
			c0.367-0.235,0.785-0.398,1.254-0.491c0.47-0.092,0.938-0.153,1.408-0.182c0.777-0.042,1.444-0.082,2.002-0.117
			s1.016-0.107,1.375-0.214c0.359-0.106,0.624-0.27,0.793-0.491c0.168-0.221,0.253-0.537,0.253-0.951
			c0-0.327-0.03-0.669-0.089-1.025s-0.201-0.684-0.429-0.983c-0.228-0.299-0.561-0.544-1.001-0.737
			c-0.439-0.192-1.034-0.289-1.782-0.289c-1.188,0-2.112,0.282-2.771,0.844c-0.66,0.563-1.027,1.356-1.101,2.382H560.345z
			 M567.957,165.717h-0.044c-0.147,0.213-0.374,0.37-0.683,0.47c-0.308,0.1-0.66,0.175-1.056,0.224
			c-0.396,0.05-0.822,0.085-1.276,0.107c-0.455,0.021-0.909,0.046-1.364,0.075c-0.439,0.029-0.869,0.085-1.287,0.171
			s-0.788,0.228-1.11,0.427c-0.323,0.2-0.58,0.48-0.771,0.844s-0.286,0.837-0.286,1.42c0,0.313,0.056,0.623,0.165,0.929
			c0.11,0.307,0.297,0.577,0.562,0.812c0.264,0.235,0.604,0.427,1.022,0.577c0.418,0.149,0.936,0.224,1.552,0.224
			c0.732,0,1.386-0.121,1.958-0.363c0.571-0.242,1.052-0.559,1.44-0.95s0.683-0.844,0.88-1.356c0.198-0.513,0.298-1.04,0.298-1.581
			V165.717z"/>
		<path d="M455.116,201.556v0.427h-9.614v-15.251h0.439v14.824H455.116z"/>
		<path d="M455.512,196.494c0-0.74,0.109-1.459,0.33-2.157c0.22-0.698,0.546-1.31,0.979-1.837s0.965-0.951,1.596-1.271
			c0.63-0.32,1.363-0.48,2.2-0.48c0.821,0,1.547,0.16,2.178,0.48s1.162,0.744,1.595,1.271s0.76,1.139,0.979,1.837
			s0.33,1.417,0.33,2.157c0,0.755-0.11,1.478-0.33,2.168c-0.22,0.691-0.547,1.303-0.979,1.837c-0.433,0.534-0.964,0.958-1.595,1.271
			c-0.631,0.313-1.364,0.47-2.2,0.47c-0.821,0-1.551-0.157-2.189-0.47c-0.638-0.313-1.17-0.737-1.595-1.271
			c-0.426-0.534-0.748-1.146-0.968-1.837C455.621,197.971,455.512,197.249,455.512,196.494z M455.951,196.494
			c0,0.698,0.1,1.367,0.298,2.008c0.197,0.641,0.494,1.207,0.891,1.698c0.396,0.491,0.884,0.883,1.463,1.175
			c0.579,0.292,1.25,0.438,2.014,0.438c0.748,0,1.411-0.146,1.99-0.438c0.58-0.292,1.067-0.684,1.464-1.175
			c0.396-0.491,0.692-1.057,0.891-1.698c0.198-0.641,0.297-1.31,0.297-2.008c0-0.684-0.099-1.346-0.297-1.986
			c-0.198-0.641-0.495-1.207-0.891-1.698c-0.396-0.491-0.884-0.886-1.464-1.186c-0.579-0.299-1.242-0.449-1.99-0.449
			c-0.764,0-1.435,0.15-2.014,0.449c-0.579,0.299-1.067,0.694-1.463,1.186c-0.396,0.491-0.693,1.057-0.891,1.698
			C456.051,195.148,455.951,195.81,455.951,196.494z"/>
		<path d="M474.894,194.251c0-0.555-0.088-1.025-0.264-1.41c-0.176-0.385-0.426-0.701-0.748-0.951
			c-0.323-0.249-0.708-0.431-1.155-0.545c-0.447-0.114-0.942-0.171-1.485-0.171c-0.792,0-1.415,0.104-1.869,0.31
			c-0.455,0.207-0.793,0.445-1.013,0.715c-0.22,0.271-0.359,0.531-0.418,0.78c-0.059,0.25-0.088,0.424-0.088,0.523
			c0,0.541,0.113,0.958,0.341,1.25c0.228,0.292,0.531,0.516,0.913,0.673c0.396,0.157,0.825,0.292,1.287,0.406
			c0.462,0.114,1.001,0.25,1.617,0.406c0.44,0.114,0.876,0.232,1.309,0.353c0.433,0.121,0.821,0.289,1.167,0.502
			c0.344,0.214,0.623,0.484,0.836,0.812c0.212,0.328,0.318,0.755,0.318,1.282c0,0.556-0.121,1.025-0.362,1.41
			c-0.242,0.384-0.558,0.698-0.946,0.939c-0.389,0.243-0.829,0.42-1.32,0.534s-0.979,0.171-1.463,0.171
			c-1.496,0-2.633-0.324-3.41-0.972s-1.166-1.663-1.166-3.044h0.439c0,1.225,0.359,2.129,1.078,2.712
			c0.719,0.584,1.738,0.876,3.059,0.876c0.41,0,0.832-0.046,1.265-0.139s0.825-0.242,1.178-0.449
			c0.352-0.206,0.641-0.473,0.869-0.801c0.227-0.328,0.341-0.727,0.341-1.196c0-0.484-0.114-0.876-0.341-1.175
			c-0.229-0.299-0.521-0.545-0.881-0.737c-0.359-0.192-0.773-0.345-1.243-0.459c-0.469-0.114-0.945-0.228-1.43-0.342
			c-0.543-0.128-1.02-0.249-1.43-0.363c-0.411-0.114-0.778-0.242-1.101-0.384c-0.47-0.199-0.813-0.477-1.034-0.833
			c-0.22-0.356-0.33-0.833-0.33-1.431c0-0.299,0.066-0.612,0.198-0.94s0.353-0.626,0.66-0.897s0.704-0.492,1.188-0.662
			c0.483-0.171,1.078-0.256,1.781-0.256c1.262,0,2.259,0.277,2.992,0.833c0.733,0.555,1.101,1.445,1.101,2.67H474.894z"/>
		<path d="M484.948,196.964l-2.09,5.02h-0.506l6.38-15.251h0.572l6.204,15.251h-0.484l-2.067-5.02H484.948z M492.78,196.537
			l-3.74-9.377h-0.044l-3.872,9.377H492.78z"/>
		<path d="M496.477,191.004h0.44v2.712h0.044c0.103-0.427,0.268-0.818,0.495-1.175c0.227-0.355,0.513-0.669,0.857-0.94
			c0.345-0.27,0.744-0.48,1.199-0.63c0.454-0.149,0.961-0.224,1.519-0.224c0.586,0,1.125,0.085,1.616,0.256
			c0.492,0.17,0.917,0.424,1.276,0.758s0.639,0.748,0.836,1.239c0.198,0.491,0.297,1.057,0.297,1.698v7.284h-0.439v-7.22
			c0-0.641-0.096-1.186-0.286-1.634c-0.19-0.448-0.451-0.818-0.781-1.111c-0.33-0.292-0.712-0.505-1.144-0.641
			c-0.434-0.135-0.892-0.203-1.375-0.203c-0.675,0-1.27,0.125-1.782,0.374c-0.514,0.25-0.942,0.584-1.287,1.004
			c-0.345,0.42-0.605,0.908-0.781,1.463c-0.176,0.555-0.264,1.139-0.264,1.751v6.216h-0.44V191.004z"/>
		<path d="M516.079,198.31h-0.065c-0.117,0.484-0.321,0.918-0.614,1.303c-0.293,0.385-0.644,0.708-1.054,0.972
			s-0.853,0.463-1.328,0.598s-0.955,0.203-1.438,0.203c-0.79,0-1.479-0.142-2.063-0.427c-0.586-0.285-1.072-0.666-1.46-1.143
			s-0.681-1.032-0.878-1.666s-0.296-1.307-0.296-2.019c0-0.74,0.103-1.435,0.308-2.083c0.205-0.647,0.514-1.217,0.924-1.708
			c0.411-0.492,0.921-0.879,1.529-1.165c0.608-0.285,1.31-0.427,2.102-0.427c0.542,0,1.048,0.082,1.518,0.246
			s0.892,0.388,1.266,0.673s0.688,0.623,0.945,1.015s0.443,0.808,0.562,1.25h0.044v-2.926h0.418v10.616
			c0,1.509-0.413,2.62-1.24,3.333c-0.826,0.712-1.979,1.068-3.457,1.068c-0.57,0-1.111-0.064-1.624-0.192
			c-0.512-0.128-0.966-0.331-1.36-0.608c-0.396-0.278-0.71-0.638-0.943-1.079c-0.234-0.441-0.359-0.968-0.373-1.581h0.439
			c0.015,0.541,0.129,1.004,0.341,1.389c0.213,0.384,0.495,0.697,0.848,0.939c0.352,0.242,0.755,0.42,1.21,0.534
			c0.454,0.114,0.938,0.171,1.452,0.171c1.378,0,2.438-0.32,3.179-0.961c0.74-0.641,1.111-1.645,1.111-3.012V198.31z
			 M516.057,196.131c0-0.626-0.092-1.239-0.274-1.837c-0.184-0.598-0.455-1.128-0.814-1.591c-0.359-0.462-0.811-0.833-1.353-1.11
			c-0.543-0.278-1.166-0.417-1.87-0.417c-0.733,0-1.375,0.132-1.926,0.396c-0.55,0.264-1.012,0.623-1.386,1.079
			c-0.374,0.456-0.652,0.982-0.836,1.581s-0.275,1.232-0.275,1.901c0,0.683,0.092,1.317,0.275,1.901s0.454,1.093,0.814,1.527
			c0.358,0.435,0.803,0.776,1.331,1.025c0.527,0.249,1.136,0.374,1.825,0.374c0.719,0,1.36-0.128,1.926-0.384
			c0.564-0.256,1.034-0.602,1.408-1.036c0.374-0.434,0.66-0.943,0.857-1.527C515.958,197.427,516.057,196.8,516.057,196.131z"/>
		<path d="M518.675,196.579c0.015,0.741,0.103,1.428,0.264,2.062s0.422,1.186,0.781,1.655s0.817,0.84,1.375,1.111
			s1.239,0.406,2.046,0.406c1.174,0,2.156-0.306,2.948-0.918s1.283-1.517,1.475-2.713h0.439c-0.073,0.627-0.246,1.193-0.517,1.698
			c-0.271,0.506-0.62,0.933-1.045,1.282c-0.426,0.349-0.913,0.616-1.464,0.801c-0.55,0.185-1.147,0.278-1.793,0.278
			c-0.88,0.014-1.632-0.125-2.255-0.417c-0.624-0.292-1.133-0.698-1.529-1.218c-0.396-0.52-0.689-1.132-0.88-1.837
			c-0.19-0.705-0.286-1.463-0.286-2.275c0-0.911,0.14-1.723,0.418-2.435c0.278-0.712,0.646-1.313,1.101-1.805
			c0.454-0.491,0.979-0.865,1.573-1.122c0.594-0.256,1.213-0.384,1.858-0.384c0.88,0,1.64,0.164,2.277,0.491
			s1.158,0.762,1.563,1.303c0.402,0.542,0.696,1.161,0.88,1.858c0.183,0.698,0.26,1.424,0.23,2.179H518.675z M527.695,196.152
			c0-0.669-0.096-1.306-0.286-1.912c-0.191-0.605-0.474-1.135-0.848-1.591c-0.374-0.456-0.84-0.815-1.396-1.079
			c-0.558-0.264-1.203-0.396-1.937-0.396c-0.616,0-1.191,0.114-1.727,0.342c-0.536,0.228-1.005,0.559-1.408,0.994
			s-0.729,0.958-0.979,1.57c-0.249,0.612-0.396,1.303-0.439,2.072H527.695z"/>
		<path d="M529.895,186.732h0.44v15.251h-0.44V186.732z"/>
		<path d="M532.535,196.579c0.015,0.741,0.103,1.428,0.264,2.062s0.422,1.186,0.781,1.655s0.817,0.84,1.375,1.111
			s1.239,0.406,2.046,0.406c1.174,0,2.156-0.306,2.948-0.918s1.283-1.517,1.475-2.713h0.439c-0.073,0.627-0.246,1.193-0.517,1.698
			c-0.271,0.506-0.62,0.933-1.045,1.282c-0.426,0.349-0.913,0.616-1.464,0.801c-0.55,0.185-1.147,0.278-1.793,0.278
			c-0.88,0.014-1.632-0.125-2.255-0.417c-0.624-0.292-1.133-0.698-1.529-1.218c-0.396-0.52-0.689-1.132-0.88-1.837
			c-0.19-0.705-0.286-1.463-0.286-2.275c0-0.911,0.14-1.723,0.418-2.435c0.278-0.712,0.646-1.313,1.101-1.805
			c0.454-0.491,0.979-0.865,1.573-1.122c0.594-0.256,1.213-0.384,1.858-0.384c0.88,0,1.64,0.164,2.277,0.491
			s1.158,0.762,1.563,1.303c0.402,0.542,0.696,1.161,0.88,1.858c0.183,0.698,0.26,1.424,0.23,2.179H532.535z M541.556,196.152
			c0-0.669-0.096-1.306-0.286-1.912c-0.191-0.605-0.474-1.135-0.848-1.591c-0.374-0.456-0.84-0.815-1.396-1.079
			c-0.558-0.264-1.203-0.396-1.937-0.396c-0.616,0-1.191,0.114-1.727,0.342c-0.536,0.228-1.005,0.559-1.408,0.994
			s-0.729,0.958-0.979,1.57c-0.249,0.612-0.396,1.303-0.439,2.072H541.556z"/>
		<path d="M551.126,194.251c0-0.555-0.088-1.025-0.264-1.41c-0.176-0.385-0.426-0.701-0.748-0.951
			c-0.323-0.249-0.708-0.431-1.155-0.545c-0.447-0.114-0.942-0.171-1.485-0.171c-0.792,0-1.415,0.104-1.869,0.31
			c-0.455,0.207-0.793,0.445-1.013,0.715c-0.22,0.271-0.359,0.531-0.418,0.78c-0.059,0.25-0.088,0.424-0.088,0.523
			c0,0.541,0.113,0.958,0.341,1.25c0.228,0.292,0.531,0.516,0.913,0.673c0.396,0.157,0.825,0.292,1.287,0.406
			c0.462,0.114,1.001,0.25,1.617,0.406c0.44,0.114,0.876,0.232,1.309,0.353c0.433,0.121,0.821,0.289,1.167,0.502
			c0.344,0.214,0.623,0.484,0.836,0.812c0.212,0.328,0.318,0.755,0.318,1.282c0,0.556-0.121,1.025-0.362,1.41
			c-0.242,0.384-0.558,0.698-0.946,0.939c-0.389,0.243-0.829,0.42-1.32,0.534s-0.979,0.171-1.463,0.171
			c-1.496,0-2.633-0.324-3.41-0.972s-1.166-1.663-1.166-3.044h0.439c0,1.225,0.359,2.129,1.078,2.712
			c0.719,0.584,1.738,0.876,3.059,0.876c0.41,0,0.832-0.046,1.265-0.139s0.825-0.242,1.178-0.449
			c0.352-0.206,0.641-0.473,0.869-0.801c0.227-0.328,0.341-0.727,0.341-1.196c0-0.484-0.114-0.876-0.341-1.175
			c-0.229-0.299-0.521-0.545-0.881-0.737c-0.359-0.192-0.773-0.345-1.243-0.459c-0.469-0.114-0.945-0.228-1.43-0.342
			c-0.543-0.128-1.02-0.249-1.43-0.363c-0.411-0.114-0.778-0.242-1.101-0.384c-0.47-0.199-0.813-0.477-1.034-0.833
			c-0.22-0.356-0.33-0.833-0.33-1.431c0-0.299,0.066-0.612,0.198-0.94s0.353-0.626,0.66-0.897s0.704-0.492,1.188-0.662
			c0.483-0.171,1.078-0.256,1.781-0.256c1.262,0,2.259,0.277,2.992,0.833c0.733,0.555,1.101,1.445,1.101,2.67H551.126z"/>
		<path d="M445.502,216.547h0.439v15.251h-0.439V216.547z"/>
		<path d="M448.78,231.799h-0.44V220.82h0.44v2.712h0.044c0.103-0.398,0.264-0.783,0.483-1.153c0.221-0.37,0.514-0.694,0.881-0.972
			c0.366-0.278,0.803-0.492,1.309-0.641s1.097-0.217,1.771-0.203v0.427c-0.778-0.042-1.449,0.061-2.014,0.31
			s-1.03,0.591-1.396,1.025c-0.367,0.435-0.639,0.937-0.814,1.506c-0.176,0.57-0.264,1.153-0.264,1.751V231.799z"/>
		<path d="M461.958,220.82h0.484l-4.269,10.979h-0.55l-4.664-10.979h0.527l4.379,10.552h0.044L461.958,220.82z"/>
		<path d="M463.828,218.705h-0.44v-2.158h0.44V218.705z M463.828,231.799h-0.44V220.82h0.44V231.799z"/>
		<path d="M466.248,220.82h0.44v2.712h0.044c0.103-0.427,0.268-0.818,0.495-1.175c0.227-0.355,0.513-0.669,0.857-0.94
			c0.345-0.27,0.744-0.48,1.199-0.63c0.454-0.149,0.961-0.224,1.519-0.224c0.586,0,1.125,0.085,1.616,0.256
			c0.492,0.17,0.917,0.424,1.276,0.758s0.639,0.748,0.836,1.239c0.198,0.491,0.297,1.057,0.297,1.698v7.284h-0.439v-7.22
			c0-0.641-0.096-1.186-0.286-1.634c-0.19-0.448-0.451-0.818-0.781-1.111c-0.33-0.292-0.712-0.505-1.144-0.641
			c-0.434-0.135-0.892-0.203-1.375-0.203c-0.675,0-1.27,0.125-1.782,0.374c-0.514,0.25-0.942,0.584-1.287,1.004
			c-0.345,0.42-0.605,0.908-0.781,1.463c-0.176,0.555-0.264,1.139-0.264,1.751v6.216h-0.44V220.82z"/>
		<path d="M477.029,226.395c0.015,0.741,0.103,1.428,0.264,2.062s0.422,1.186,0.781,1.655s0.817,0.84,1.375,1.111
			s1.239,0.406,2.046,0.406c1.174,0,2.156-0.306,2.948-0.918s1.283-1.517,1.475-2.713h0.439c-0.073,0.627-0.246,1.193-0.517,1.698
			c-0.271,0.506-0.62,0.933-1.045,1.282c-0.426,0.349-0.913,0.616-1.464,0.801c-0.55,0.185-1.147,0.278-1.793,0.278
			c-0.88,0.014-1.632-0.125-2.255-0.417c-0.624-0.292-1.133-0.698-1.529-1.218c-0.396-0.52-0.689-1.132-0.88-1.837
			c-0.19-0.705-0.286-1.463-0.286-2.275c0-0.911,0.14-1.723,0.418-2.435c0.278-0.712,0.646-1.313,1.101-1.805
			c0.454-0.491,0.979-0.865,1.573-1.122c0.594-0.256,1.213-0.384,1.858-0.384c0.88,0,1.64,0.164,2.277,0.491
			s1.158,0.762,1.563,1.303c0.402,0.542,0.696,1.161,0.88,1.858c0.183,0.698,0.26,1.424,0.23,2.179H477.029z M486.05,225.967
			c0-0.669-0.096-1.306-0.286-1.912c-0.191-0.605-0.474-1.135-0.848-1.591c-0.374-0.456-0.84-0.815-1.396-1.079
			c-0.558-0.264-1.203-0.396-1.937-0.396c-0.616,0-1.191,0.114-1.727,0.342c-0.536,0.228-1.005,0.559-1.408,0.994
			s-0.729,0.958-0.979,1.57c-0.249,0.612-0.396,1.303-0.439,2.072H486.05z"/>
		<path d="M445.941,261.614h-0.439v-15.251h6.424c1.628,0,2.827,0.32,3.598,0.961c0.77,0.641,1.169,1.624,1.198,2.948
			c0.029,1.011-0.249,1.858-0.836,2.542c-0.587,0.683-1.43,1.146-2.53,1.388v0.043c0.66,0.085,1.195,0.238,1.606,0.459
			c0.41,0.221,0.726,0.509,0.946,0.865c0.22,0.356,0.366,0.776,0.439,1.26c0.073,0.484,0.11,1.033,0.11,1.645
			c0,0.228,0.007,0.499,0.022,0.812c0.014,0.313,0.036,0.626,0.065,0.94c0.029,0.313,0.066,0.598,0.11,0.854
			s0.103,0.435,0.176,0.534h-0.484c-0.073-0.157-0.128-0.367-0.165-0.63c-0.036-0.263-0.069-0.544-0.099-0.843
			c-0.029-0.299-0.048-0.602-0.055-0.908c-0.008-0.306-0.012-0.58-0.012-0.822c0-0.626-0.047-1.186-0.143-1.677
			s-0.29-0.904-0.583-1.239c-0.294-0.334-0.715-0.591-1.265-0.769c-0.551-0.178-1.273-0.267-2.168-0.267h-5.918V261.614z
			 M445.941,254.031h5.874c0.572,0,1.13-0.071,1.673-0.213c0.542-0.143,1.022-0.37,1.44-0.684c0.418-0.313,0.748-0.708,0.99-1.186
			s0.363-1.05,0.363-1.72c-0.015-1.082-0.353-1.926-1.013-2.531c-0.659-0.605-1.737-0.908-3.233-0.908h-6.095V254.031z"/>
		<path d="M459.406,248.521h-0.44v-2.158h0.44V248.521z M459.406,261.614h-0.44v-10.979h0.44V261.614z"/>
		<path d="M469.351,250.635h0.484l-4.269,10.979h-0.55l-4.664-10.979h0.527l4.379,10.552h0.044L469.351,250.635z"/>
		<path d="M470.561,256.21c0.015,0.741,0.103,1.428,0.264,2.062s0.422,1.186,0.781,1.655s0.817,0.84,1.375,1.111
			s1.239,0.406,2.046,0.406c1.174,0,2.156-0.306,2.948-0.918s1.283-1.517,1.475-2.713h0.439c-0.073,0.627-0.246,1.193-0.517,1.698
			c-0.271,0.506-0.62,0.933-1.045,1.282c-0.426,0.349-0.913,0.616-1.464,0.801c-0.55,0.185-1.147,0.278-1.793,0.278
			c-0.88,0.014-1.632-0.125-2.255-0.417c-0.624-0.292-1.133-0.698-1.529-1.218c-0.396-0.52-0.689-1.132-0.88-1.837
			c-0.19-0.705-0.286-1.463-0.286-2.275c0-0.911,0.14-1.723,0.418-2.435c0.278-0.712,0.646-1.313,1.101-1.805
			c0.454-0.491,0.979-0.865,1.573-1.122c0.594-0.256,1.213-0.384,1.858-0.384c0.88,0,1.64,0.164,2.277,0.491
			s1.158,0.762,1.563,1.303c0.402,0.542,0.696,1.161,0.88,1.858c0.183,0.698,0.26,1.424,0.23,2.179H470.561z M479.581,255.783
			c0-0.669-0.096-1.306-0.286-1.912c-0.191-0.605-0.474-1.135-0.848-1.591c-0.374-0.456-0.84-0.815-1.396-1.079
			c-0.558-0.264-1.203-0.396-1.937-0.396c-0.616,0-1.191,0.114-1.727,0.342c-0.536,0.228-1.005,0.559-1.408,0.994
			s-0.729,0.958-0.979,1.57c-0.249,0.612-0.396,1.303-0.439,2.072H479.581z"/>
		<path d="M482.222,261.614h-0.44v-10.979h0.44v2.712h0.044c0.103-0.398,0.264-0.783,0.483-1.153
			c0.221-0.37,0.514-0.694,0.881-0.972c0.366-0.278,0.803-0.492,1.309-0.641s1.097-0.217,1.771-0.203v0.427
			c-0.778-0.042-1.449,0.061-2.014,0.31s-1.03,0.591-1.396,1.025c-0.367,0.435-0.639,0.937-0.814,1.506
			c-0.176,0.57-0.264,1.153-0.264,1.751V261.614z"/>
		<path d="M494.85,253.882c0-0.555-0.088-1.025-0.264-1.41c-0.176-0.385-0.426-0.701-0.748-0.951
			c-0.323-0.249-0.708-0.431-1.155-0.545c-0.447-0.114-0.942-0.171-1.485-0.171c-0.792,0-1.415,0.104-1.869,0.31
			c-0.455,0.207-0.793,0.445-1.013,0.715c-0.22,0.271-0.359,0.531-0.418,0.78c-0.059,0.25-0.088,0.424-0.088,0.523
			c0,0.541,0.113,0.958,0.341,1.25c0.228,0.292,0.531,0.516,0.913,0.673c0.396,0.157,0.825,0.292,1.287,0.406
			c0.462,0.114,1.001,0.25,1.617,0.406c0.44,0.114,0.876,0.232,1.309,0.353c0.433,0.121,0.821,0.289,1.167,0.502
			c0.344,0.214,0.623,0.484,0.836,0.812c0.212,0.328,0.318,0.755,0.318,1.282c0,0.556-0.121,1.025-0.362,1.41
			c-0.242,0.384-0.558,0.698-0.946,0.939c-0.389,0.243-0.829,0.42-1.32,0.534s-0.979,0.171-1.463,0.171
			c-1.496,0-2.633-0.324-3.41-0.972s-1.166-1.663-1.166-3.044h0.439c0,1.225,0.359,2.129,1.078,2.712
			c0.719,0.584,1.738,0.876,3.059,0.876c0.41,0,0.832-0.046,1.265-0.139s0.825-0.242,1.178-0.449
			c0.352-0.206,0.641-0.473,0.869-0.801c0.227-0.328,0.341-0.727,0.341-1.196c0-0.484-0.114-0.876-0.341-1.175
			c-0.229-0.299-0.521-0.545-0.881-0.737c-0.359-0.192-0.773-0.345-1.243-0.459c-0.469-0.114-0.945-0.228-1.43-0.342
			c-0.543-0.128-1.02-0.249-1.43-0.363c-0.411-0.114-0.778-0.242-1.101-0.384c-0.47-0.199-0.813-0.477-1.034-0.833
			c-0.22-0.356-0.33-0.833-0.33-1.431c0-0.299,0.066-0.612,0.198-0.94s0.353-0.626,0.66-0.897s0.704-0.492,1.188-0.662
			c0.483-0.171,1.078-0.256,1.781-0.256c1.262,0,2.259,0.277,2.992,0.833c0.733,0.555,1.101,1.445,1.101,2.67H494.85z"/>
		<path d="M498.106,248.521h-0.44v-2.158h0.44V248.521z M498.106,261.614h-0.44v-10.979h0.44V261.614z"/>
		<path d="M509.327,246.363h0.439v15.251h-0.439v-3.076h-0.044c-0.147,0.484-0.356,0.929-0.627,1.335
			c-0.272,0.406-0.602,0.758-0.99,1.057c-0.389,0.299-0.829,0.531-1.32,0.694s-1.023,0.246-1.595,0.246
			c-0.748,0-1.419-0.143-2.014-0.427c-0.594-0.285-1.1-0.684-1.518-1.196s-0.737-1.118-0.957-1.815
			c-0.221-0.698-0.33-1.459-0.33-2.286c0-0.769,0.103-1.502,0.308-2.2c0.205-0.697,0.514-1.31,0.924-1.837
			c0.411-0.527,0.917-0.947,1.519-1.26c0.602-0.313,1.29-0.47,2.068-0.47c1.202,0,2.192,0.306,2.97,0.918s1.298,1.417,1.563,2.414
			h0.044V246.363z M509.327,256.146c0-0.854-0.11-1.613-0.33-2.275c-0.221-0.662-0.528-1.221-0.924-1.677
			c-0.396-0.456-0.877-0.801-1.441-1.036c-0.564-0.235-1.192-0.353-1.881-0.353c-0.778,0-1.441,0.161-1.991,0.481
			s-1.001,0.733-1.354,1.239c-0.352,0.506-0.612,1.075-0.781,1.709c-0.168,0.634-0.253,1.271-0.253,1.912
			c0,0.712,0.092,1.385,0.275,2.019c0.184,0.634,0.454,1.196,0.814,1.688c0.358,0.491,0.813,0.879,1.363,1.164
			c0.551,0.285,1.191,0.427,1.926,0.427c0.718,0,1.363-0.142,1.936-0.427c0.572-0.285,1.053-0.669,1.441-1.153
			c0.389-0.484,0.686-1.047,0.891-1.688C509.224,257.534,509.327,256.858,509.327,256.146z"/>
		<path d="M512.121,256.21c0.015,0.741,0.103,1.428,0.264,2.062s0.422,1.186,0.781,1.655s0.817,0.84,1.375,1.111
			s1.239,0.406,2.046,0.406c1.174,0,2.156-0.306,2.948-0.918s1.283-1.517,1.475-2.713h0.439c-0.073,0.627-0.246,1.193-0.517,1.698
			c-0.271,0.506-0.62,0.933-1.045,1.282c-0.426,0.349-0.913,0.616-1.464,0.801c-0.55,0.185-1.147,0.278-1.793,0.278
			c-0.88,0.014-1.632-0.125-2.255-0.417c-0.624-0.292-1.133-0.698-1.529-1.218c-0.396-0.52-0.689-1.132-0.88-1.837
			c-0.19-0.705-0.286-1.463-0.286-2.275c0-0.911,0.14-1.723,0.418-2.435c0.278-0.712,0.646-1.313,1.101-1.805
			c0.454-0.491,0.979-0.865,1.573-1.122c0.594-0.256,1.213-0.384,1.858-0.384c0.88,0,1.64,0.164,2.277,0.491
			s1.158,0.762,1.563,1.303c0.402,0.542,0.696,1.161,0.88,1.858c0.183,0.698,0.26,1.424,0.23,2.179H512.121z M521.142,255.783
			c0-0.669-0.096-1.306-0.286-1.912c-0.191-0.605-0.474-1.135-0.848-1.591c-0.374-0.456-0.84-0.815-1.396-1.079
			c-0.558-0.264-1.203-0.396-1.937-0.396c-0.616,0-1.191,0.114-1.727,0.342c-0.536,0.228-1.005,0.559-1.408,0.994
			s-0.729,0.958-0.979,1.57c-0.249,0.612-0.396,1.303-0.439,2.072H521.142z"/>
		<path d="M455.996,280.451c-0.029-0.783-0.18-1.442-0.451-1.976s-0.631-0.964-1.078-1.292c-0.447-0.327-0.979-0.566-1.595-0.715
			s-1.276-0.224-1.98-0.224c-0.558,0-1.126,0.053-1.705,0.16c-0.579,0.106-1.107,0.295-1.584,0.566s-0.869,0.63-1.177,1.079
			c-0.309,0.449-0.462,1.015-0.462,1.698s0.157,1.232,0.473,1.645c0.315,0.414,0.727,0.748,1.232,1.004s1.081,0.456,1.727,0.598
			c0.646,0.143,1.306,0.292,1.98,0.449c0.733,0.185,1.426,0.36,2.079,0.523c0.652,0.164,1.221,0.392,1.705,0.684
			c0.483,0.292,0.869,0.673,1.155,1.143c0.285,0.47,0.429,1.104,0.429,1.901c0,0.727-0.162,1.346-0.484,1.858
			s-0.748,0.937-1.275,1.271c-0.528,0.335-1.122,0.581-1.782,0.737c-0.66,0.157-1.328,0.235-2.002,0.235
			c-0.896,0-1.721-0.104-2.476-0.31c-0.756-0.206-1.408-0.526-1.958-0.961c-0.55-0.434-0.976-0.993-1.276-1.677
			s-0.443-1.509-0.429-2.478h0.44c0,0.912,0.139,1.684,0.418,2.318c0.278,0.634,0.671,1.15,1.177,1.548
			c0.506,0.399,1.107,0.688,1.804,0.865c0.696,0.178,1.463,0.267,2.3,0.267c0.615,0,1.228-0.067,1.837-0.203
			c0.608-0.135,1.155-0.353,1.639-0.651c0.484-0.299,0.876-0.684,1.177-1.153c0.301-0.47,0.451-1.033,0.451-1.688
			c0-0.769-0.172-1.378-0.517-1.827c-0.345-0.448-0.785-0.804-1.32-1.068c-0.535-0.263-1.13-0.462-1.782-0.598
			c-0.652-0.135-1.279-0.274-1.881-0.417c-0.646-0.142-1.279-0.292-1.903-0.449c-0.623-0.156-1.188-0.374-1.693-0.651
			c-0.507-0.277-0.913-0.644-1.222-1.1c-0.308-0.456-0.462-1.061-0.462-1.815s0.161-1.385,0.484-1.891
			c0.322-0.505,0.74-0.908,1.254-1.207c0.513-0.299,1.089-0.513,1.727-0.641c0.639-0.128,1.272-0.192,1.903-0.192
			c0.763,0,1.475,0.082,2.134,0.246c0.66,0.164,1.236,0.427,1.728,0.79c0.491,0.363,0.884,0.84,1.177,1.431
			c0.294,0.591,0.462,1.314,0.506,2.168H455.996z"/>
		<path d="M458.944,283.847c0.028-0.513,0.139-0.993,0.33-1.442c0.19-0.448,0.465-0.836,0.824-1.164
			c0.359-0.327,0.8-0.583,1.32-0.769c0.521-0.185,1.133-0.277,1.837-0.277c0.499,0,0.972,0.05,1.419,0.149s0.84,0.274,1.178,0.523
			c0.337,0.249,0.608,0.573,0.813,0.972c0.205,0.399,0.315,0.897,0.33,1.495v6.985c0,0.214,0.044,0.371,0.132,0.47
			s0.206,0.167,0.353,0.203c0.146,0.036,0.3,0.05,0.462,0.043c0.161-0.007,0.322-0.018,0.484-0.032v0.427
			c-0.221,0.014-0.44,0.021-0.66,0.021c-0.221,0-0.418-0.036-0.595-0.107c-0.176-0.071-0.322-0.182-0.439-0.331
			c-0.118-0.149-0.176-0.367-0.176-0.651v-1.431h-0.044c-0.118,0.356-0.305,0.698-0.562,1.025s-0.579,0.619-0.968,0.875
			s-0.833,0.463-1.331,0.62c-0.499,0.156-1.042,0.235-1.628,0.235c-1.13,0-2.043-0.25-2.739-0.748
			c-0.697-0.499-1.045-1.239-1.045-2.222c0-0.684,0.113-1.231,0.341-1.645s0.524-0.737,0.891-0.972
			c0.367-0.235,0.785-0.398,1.254-0.491c0.47-0.092,0.938-0.153,1.408-0.182c0.777-0.042,1.444-0.082,2.002-0.117
			s1.016-0.107,1.375-0.214c0.359-0.106,0.624-0.27,0.793-0.491c0.168-0.221,0.253-0.537,0.253-0.951
			c0-0.327-0.03-0.669-0.089-1.025s-0.201-0.684-0.429-0.983c-0.228-0.299-0.561-0.544-1.001-0.737
			c-0.439-0.192-1.034-0.289-1.782-0.289c-1.188,0-2.112,0.282-2.771,0.844c-0.66,0.563-1.027,1.356-1.101,2.382H458.944z
			 M466.557,284.979h-0.044c-0.147,0.213-0.374,0.37-0.683,0.47c-0.308,0.1-0.66,0.175-1.056,0.224
			c-0.396,0.05-0.822,0.085-1.276,0.107c-0.455,0.021-0.909,0.046-1.364,0.075c-0.439,0.029-0.869,0.085-1.287,0.171
			s-0.788,0.228-1.11,0.427c-0.323,0.2-0.58,0.48-0.771,0.844s-0.286,0.837-0.286,1.42c0,0.313,0.056,0.623,0.165,0.929
			c0.11,0.307,0.297,0.577,0.562,0.812c0.264,0.235,0.604,0.427,1.022,0.577c0.418,0.149,0.936,0.224,1.552,0.224
			c0.732,0,1.386-0.121,1.958-0.363c0.571-0.242,1.052-0.559,1.44-0.95s0.683-0.844,0.88-1.356c0.198-0.513,0.298-1.04,0.298-1.581
			V284.979z"/>
		<path d="M469.548,280.451h0.44v2.712h0.044c0.103-0.427,0.268-0.818,0.495-1.175c0.227-0.355,0.513-0.669,0.857-0.94
			c0.345-0.27,0.744-0.48,1.199-0.63c0.454-0.149,0.961-0.224,1.519-0.224c0.586,0,1.125,0.085,1.616,0.256
			c0.492,0.17,0.917,0.424,1.276,0.758s0.639,0.748,0.836,1.239c0.198,0.491,0.297,1.057,0.297,1.698v7.284h-0.439v-7.22
			c0-0.641-0.096-1.186-0.286-1.634c-0.19-0.448-0.451-0.818-0.781-1.111c-0.33-0.292-0.712-0.505-1.144-0.641
			c-0.434-0.135-0.892-0.203-1.375-0.203c-0.675,0-1.27,0.125-1.782,0.374c-0.514,0.25-0.942,0.584-1.287,1.004
			c-0.345,0.42-0.605,0.908-0.781,1.463c-0.176,0.555-0.264,1.139-0.264,1.751v6.216h-0.44V280.451z"/>
		<path d="M486.644,276.178h5.5c0.777,0,1.565,0.118,2.365,0.353c0.799,0.235,1.518,0.641,2.156,1.218
			c0.638,0.577,1.158,1.356,1.562,2.339s0.605,2.221,0.605,3.717c0,1.367-0.206,2.535-0.616,3.503
			c-0.411,0.969-0.961,1.755-1.65,2.36c-0.689,0.605-1.478,1.05-2.365,1.335c-0.888,0.285-1.801,0.427-2.739,0.427h-4.817V276.178z
			 M487.083,291.002h4.488c0.924,0,1.801-0.146,2.629-0.438c0.829-0.292,1.555-0.733,2.179-1.324
			c0.623-0.591,1.114-1.338,1.474-2.243s0.539-1.969,0.539-3.193c0-1.424-0.184-2.599-0.55-3.524
			c-0.367-0.926-0.851-1.663-1.452-2.211s-1.28-0.929-2.035-1.143c-0.756-0.213-1.529-0.32-2.321-0.32h-4.95V291.002z"/>
		<path d="M501.362,278.336h-0.44v-2.158h0.44V278.336z M501.362,291.43h-0.44v-10.979h0.44V291.43z"/>
		<path d="M503.563,286.025c0.015,0.741,0.103,1.428,0.264,2.062s0.422,1.186,0.781,1.655s0.817,0.84,1.375,1.111
			s1.239,0.406,2.046,0.406c1.174,0,2.156-0.306,2.948-0.918s1.283-1.517,1.475-2.713h0.439c-0.073,0.627-0.246,1.193-0.517,1.698
			c-0.271,0.506-0.62,0.933-1.045,1.282c-0.426,0.349-0.913,0.616-1.464,0.801c-0.55,0.185-1.147,0.278-1.793,0.278
			c-0.88,0.014-1.632-0.125-2.255-0.417c-0.624-0.292-1.133-0.698-1.529-1.218c-0.396-0.52-0.689-1.132-0.88-1.837
			c-0.19-0.705-0.286-1.463-0.286-2.275c0-0.911,0.14-1.723,0.418-2.435c0.278-0.712,0.646-1.313,1.101-1.805
			c0.454-0.491,0.979-0.865,1.573-1.122c0.594-0.256,1.213-0.384,1.858-0.384c0.88,0,1.64,0.164,2.277,0.491
			s1.158,0.762,1.563,1.303c0.402,0.542,0.696,1.161,0.88,1.858c0.183,0.698,0.26,1.424,0.23,2.179H503.563z M512.583,285.598
			c0-0.669-0.096-1.306-0.286-1.912c-0.191-0.605-0.474-1.135-0.848-1.591c-0.374-0.456-0.84-0.815-1.396-1.079
			c-0.558-0.264-1.203-0.396-1.937-0.396c-0.616,0-1.191,0.114-1.727,0.342c-0.536,0.228-1.005,0.559-1.408,0.994
			s-0.729,0.958-0.979,1.57c-0.249,0.612-0.396,1.303-0.439,2.072H512.583z"/>
		<path d="M523.386,287.756h-0.065c-0.117,0.484-0.321,0.918-0.614,1.303c-0.293,0.385-0.644,0.708-1.054,0.972
			s-0.853,0.463-1.328,0.598s-0.955,0.203-1.438,0.203c-0.79,0-1.479-0.142-2.063-0.427c-0.586-0.285-1.072-0.666-1.46-1.143
			s-0.681-1.032-0.878-1.666s-0.296-1.307-0.296-2.019c0-0.74,0.103-1.435,0.308-2.083c0.205-0.647,0.514-1.217,0.924-1.708
			c0.411-0.492,0.921-0.879,1.529-1.165c0.608-0.285,1.31-0.427,2.102-0.427c0.542,0,1.048,0.082,1.518,0.246
			s0.892,0.388,1.266,0.673s0.688,0.623,0.945,1.015s0.443,0.808,0.562,1.25h0.044v-2.926h0.418v10.616
			c0,1.509-0.413,2.62-1.24,3.333c-0.826,0.712-1.979,1.068-3.457,1.068c-0.57,0-1.111-0.064-1.624-0.192
			c-0.512-0.128-0.966-0.331-1.36-0.608c-0.396-0.278-0.71-0.638-0.943-1.079c-0.234-0.441-0.359-0.968-0.373-1.581h0.439
			c0.015,0.541,0.129,1.004,0.341,1.389c0.213,0.384,0.495,0.697,0.848,0.939c0.352,0.242,0.755,0.42,1.21,0.534
			c0.454,0.114,0.938,0.171,1.452,0.171c1.378,0,2.438-0.32,3.179-0.961c0.74-0.641,1.111-1.645,1.111-3.012V287.756z
			 M523.363,285.577c0-0.626-0.092-1.239-0.274-1.837c-0.184-0.598-0.455-1.128-0.814-1.591c-0.359-0.462-0.811-0.833-1.353-1.11
			c-0.543-0.278-1.166-0.417-1.87-0.417c-0.733,0-1.375,0.132-1.926,0.396c-0.55,0.264-1.012,0.623-1.386,1.079
			c-0.374,0.456-0.652,0.982-0.836,1.581s-0.275,1.232-0.275,1.901c0,0.683,0.092,1.317,0.275,1.901s0.454,1.093,0.814,1.527
			c0.358,0.435,0.803,0.776,1.331,1.025c0.527,0.249,1.136,0.374,1.825,0.374c0.719,0,1.36-0.128,1.926-0.384
			c0.564-0.256,1.034-0.602,1.408-1.036c0.374-0.434,0.66-0.943,0.857-1.527C523.265,286.873,523.363,286.247,523.363,285.577z"/>
		<path d="M525.607,285.94c0-0.74,0.109-1.459,0.33-2.157c0.22-0.698,0.546-1.31,0.979-1.837s0.965-0.951,1.596-1.271
			c0.63-0.32,1.363-0.48,2.2-0.48c0.821,0,1.547,0.16,2.178,0.48s1.162,0.744,1.595,1.271s0.76,1.139,0.979,1.837
			s0.33,1.417,0.33,2.157c0,0.755-0.11,1.478-0.33,2.168c-0.22,0.691-0.547,1.303-0.979,1.837c-0.433,0.534-0.964,0.958-1.595,1.271
			c-0.631,0.313-1.364,0.47-2.2,0.47c-0.821,0-1.551-0.157-2.189-0.47c-0.638-0.313-1.17-0.737-1.595-1.271
			c-0.426-0.534-0.748-1.146-0.968-1.837C525.717,287.417,525.607,286.695,525.607,285.94z M526.047,285.94
			c0,0.698,0.1,1.367,0.298,2.008c0.197,0.641,0.494,1.207,0.891,1.698c0.396,0.491,0.884,0.883,1.463,1.175
			c0.579,0.292,1.25,0.438,2.014,0.438c0.748,0,1.411-0.146,1.99-0.438c0.58-0.292,1.067-0.684,1.464-1.175
			c0.396-0.491,0.692-1.057,0.891-1.698c0.198-0.641,0.297-1.31,0.297-2.008c0-0.684-0.099-1.346-0.297-1.986
			c-0.198-0.641-0.495-1.207-0.891-1.698c-0.396-0.491-0.884-0.886-1.464-1.186c-0.579-0.299-1.242-0.449-1.99-0.449
			c-0.764,0-1.435,0.15-2.014,0.449c-0.579,0.299-1.067,0.694-1.463,1.186c-0.396,0.491-0.693,1.057-0.891,1.698
			C526.146,284.594,526.047,285.256,526.047,285.94z"/>
	</g>
</g>
<rect x="397.165" y="94.988" fill="#F5AE4C" width="37.502" height="21.847"/>
<rect x="397.165" y="35.485" fill="#5DAE98" width="37.502" height="21.846"/>
<rect x="397.165" y="65.237" fill="#5D92C4" width="37.503" height="21.845"/>
<rect x="397.165" y="124.741" fill="#9A6AAD" width="37.502" height="21.844"/>
<rect x="397.165" y="154.489" fill="#CA6146" width="37.502" height="21.848"/>
<rect x="397.165" y="184.241" fill="#556073" width="37.502" height="21.846"/>
<rect x="397.165" y="243.743" fill="#526E44" width="37.502" height="21.847"/>
<rect x="397.165" y="213.992" fill="#995A49" width="37.502" height="21.847"/>
<rect x="397.165" y="273.494" fill="#5DBDBD" width="37.502" height="21.848"/>
<circle cx="127.103" cy="379.231" r="5.713"/>
<circle cx="151.738" cy="272.874" r="5.713"/>
<circle cx="214.682" cy="365.366" r="5.713"/>
<circle cx="395.149" cy="594.461" r="5.712"/>
<g>
</g>
<g>
</g>
<g>
</g>
<g>
</g>
<g>
</g>
<g>
</g>
<g>
</g>
</svg>
